<svg data-v-fde0c5aa="" xmlns="http://www.w3.org/2000/svg" viewBox="0 0 300 300" class="iconLeftSlogan"><!----><defs data-v-fde0c5aa=""><!----></defs><rect data-v-fde0c5aa="" fill="#caf0f8ff" x="0" y="0" width="300px" height="300px" class="logo-background-square"></rect><defs data-v-fde0c5aa=""><!----></defs><g data-v-fde0c5aa="" id="a0924ee3-af7b-49c3-8bfb-b97bb1ba35b0" fill="#0096c7ff" transform="matrix(1.7914362417397676,0,0,1.7914362417397676,101.27875385092977,123.20230015013504)"><path d="M5.91 3.09L5.91 3.09L5.91 3.09Q5.96 3.09 6.09 3.12L6.09 3.12L6.09 3.12Q6.22 3.14 6.34 3.16L6.34 3.16L6.34 3.16Q6.47 3.19 6.59 3.23L6.59 3.23L6.59 3.23Q6.71 3.26 6.78 3.28L6.78 3.28L6.78 3.28Q6.79 3.42 6.80 3.54L6.80 3.54L6.80 3.54Q6.80 3.67 6.80 3.79L6.80 3.79L6.80 3.79Q6.79 3.88 6.80 3.96L6.80 3.96L6.80 3.96Q6.82 4.03 6.83 4.11L6.83 4.11L6.83 4.11Q6.83 4.19 6.80 4.26L6.80 4.26L6.80 4.26Q6.78 4.34 6.68 4.41L6.68 4.41L6.68 4.41Q6.65 4.42 6.52 4.42L6.52 4.42L6.52 4.42Q6.38 4.42 6.23 4.42L6.23 4.42L6.23 4.42Q6.08 4.42 5.94 4.43L5.94 4.43L5.94 4.43Q5.81 4.44 5.80 4.47L5.80 4.47L5.80 4.47Q5.46 4.51 5.12 4.54L5.12 4.54L5.12 4.54Q4.77 4.56 4.44 4.61L4.44 4.61L4.44 4.61Q4.00 4.65 3.57 4.65L3.57 4.65L3.57 4.65Q3.14 4.66 2.70 4.75L2.70 4.75L2.70 4.75Q2.65 4.91 2.62 5.25L2.62 5.25L2.62 5.25Q2.59 5.59 2.57 5.97L2.57 5.97L2.57 5.97Q2.55 6.36 2.54 6.71L2.54 6.71L2.54 6.71Q2.53 7.07 2.53 7.27L2.53 7.27L2.53 7.27Q2.62 7.35 2.87 7.36L2.87 7.36L2.87 7.36Q3.12 7.38 3.46 7.35L3.46 7.35L3.46 7.35Q3.79 7.32 4.18 7.28L4.18 7.28L4.18 7.28Q4.56 7.24 4.91 7.22L4.91 7.22L4.91 7.22Q5.26 7.20 5.54 7.21L5.54 7.21L5.54 7.21Q5.81 7.22 5.92 7.31L5.92 7.31L5.92 7.31Q5.98 7.38 6.01 7.53L6.01 7.53L6.01 7.53Q6.05 7.67 6.05 7.83L6.05 7.83L6.05 7.83Q6.06 7.98 6.04 8.13L6.04 8.13L6.04 8.13Q6.02 8.27 5.98 8.34L5.98 8.34L5.98 8.34Q5.81 8.37 5.36 8.39L5.36 8.39L5.36 8.39Q4.90 8.40 4.42 8.41L4.42 8.41L4.42 8.41Q3.93 8.43 3.53 8.47L3.53 8.47L3.53 8.47Q3.12 8.51 3.04 8.61L3.04 8.61L2.39 8.65L2.39 8.65Q2.41 8.86 2.42 9.23L2.42 9.23L2.42 9.23Q2.44 9.60 2.44 10.00L2.44 10.00L2.44 10.00Q2.45 10.40 2.46 10.77L2.46 10.77L2.46 10.77Q2.46 11.14 2.48 11.35L2.48 11.35L2.48 11.35Q2.76 11.34 3.33 11.25L3.33 11.25L3.33 11.25Q3.89 11.16 4.50 11.10L4.50 11.10L4.50 11.10Q5.11 11.05 5.63 11.07L5.63 11.07L5.63 11.07Q6.15 11.09 6.34 11.27L6.34 11.27L6.34 11.27Q6.34 11.38 6.38 11.44L6.38 11.44L6.38 11.44Q6.43 11.49 6.45 11.65L6.45 11.65L6.45 11.65Q6.48 11.83 6.48 11.94L6.48 11.94L6.48 11.94Q6.48 12.05 6.34 12.24L6.34 12.24L6.34 12.24Q6.23 12.29 5.90 12.35L5.90 12.35L5.90 12.35Q5.57 12.40 5.14 12.46L5.14 12.46L5.14 12.46Q4.70 12.52 4.21 12.57L4.21 12.57L4.21 12.57Q3.71 12.63 3.25 12.66L3.25 12.66L3.25 12.66Q2.79 12.70 2.42 12.72L2.42 12.72L2.42 12.72Q2.04 12.74 1.88 12.74L1.88 12.74L1.88 12.74Q1.69 12.74 1.53 12.69L1.53 12.69L1.53 12.69Q1.36 12.64 1.23 12.52L1.23 12.52L1.23 12.52Q1.23 12.36 1.18 12.24L1.18 12.24L1.18 12.24Q1.13 12.12 1.12 11.97L1.12 11.97L1.12 11.97Q1.09 11.82 1.09 11.65L1.09 11.65L1.09 11.65Q1.09 11.48 1.06 11.33L1.06 11.33L1.06 11.33Q0.98 10.99 0.97 10.49L0.97 10.49L0.97 10.49Q0.97 9.98 0.99 9.44L0.99 9.44L0.99 9.44Q1.02 8.89 1.06 8.36L1.06 8.36L1.06 8.36Q1.09 7.83 1.08 7.43L1.08 7.43L1.08 7.43Q1.08 7.34 1.09 7.04L1.09 7.04L1.09 7.04Q1.11 6.73 1.13 6.33L1.13 6.33L1.13 6.33Q1.15 5.92 1.17 5.46L1.17 5.46L1.17 5.46Q1.19 5.00 1.20 4.60L1.20 4.60L1.20 4.60Q1.22 4.20 1.22 3.91L1.22 3.91L1.22 3.91Q1.22 3.61 1.19 3.53L1.19 3.53L1.19 3.53Q2.41 3.29 3.54 3.20L3.54 3.20L3.54 3.20Q4.68 3.11 5.91 3.09ZM9.06 9.90L9.06 9.90L9.06 9.90Q8.69 9.25 8.36 8.71L8.36 8.71L8.36 8.71Q8.02 8.16 7.71 7.46L7.71 7.46L7.71 7.46Q7.76 7.42 7.90 7.34L7.90 7.34L7.90 7.34Q8.04 7.27 8.20 7.20L8.20 7.20L8.20 7.20Q8.36 7.13 8.50 7.06L8.50 7.06L8.50 7.06Q8.65 7 8.71 6.97L8.71 6.97L8.71 6.97Q8.95 7.39 9.23 7.96L9.23 7.96L9.23 7.96Q9.52 8.53 9.93 9.06L9.93 9.06L9.93 9.06Q9.97 9.04 10.11 8.90L10.11 8.90L10.11 8.90Q10.25 8.75 10.43 8.53L10.43 8.53L10.43 8.53Q10.61 8.32 10.83 8.06L10.83 8.06L10.83 8.06Q11.05 7.80 11.26 7.55L11.26 7.55L11.26 7.55Q11.47 7.31 11.65 7.12L11.65 7.12L11.65 7.12Q11.83 6.93 11.96 6.86L11.96 6.86L11.96 6.86Q12.26 6.82 12.56 7.14L12.56 7.14L12.56 7.14Q12.60 7.20 12.71 7.25L12.71 7.25L12.71 7.25Q12.82 7.31 12.85 7.38L12.85 7.38L12.85 7.38Q12.73 7.48 12.54 7.67L12.54 7.67L12.54 7.67Q12.35 7.87 12.12 8.11L12.12 8.11L12.12 8.11Q11.89 8.36 11.65 8.63L11.65 8.63L11.65 8.63Q11.41 8.90 11.21 9.16L11.21 9.16L11.21 9.16Q11.00 9.42 10.86 9.63L10.86 9.63L10.86 9.63Q10.71 9.84 10.65 9.97L10.65 9.97L10.65 9.97Q10.96 10.37 11.28 10.76L11.28 10.76L11.28 10.76Q11.61 11.14 11.98 11.47L11.98 11.47L11.98 11.47Q12.26 11.70 12.51 11.84L12.51 11.84L12.51 11.84Q12.75 11.98 12.94 12.10L12.94 12.10L12.94 12.10Q12.87 12.25 12.72 12.39L12.72 12.39L12.72 12.39Q12.57 12.53 12.38 12.62L12.38 12.62L12.38 12.62Q12.19 12.71 12.00 12.73L12.00 12.73L12.00 12.73Q11.82 12.75 11.66 12.67L11.66 12.67L11.66 12.67Q11.56 12.61 11.48 12.54L11.48 12.54L11.48 12.54Q11.40 12.47 11.30 12.42L11.30 12.42L11.30 12.42Q11.19 12.29 11.00 12.14L11.00 12.14L11.00 12.14Q10.82 12.00 10.70 11.89L10.70 11.89L10.70 11.89Q10.50 11.69 10.30 11.43L10.30 11.43L10.30 11.43Q10.11 11.17 9.87 11.00L9.87 11.00L9.87 11.00Q9.74 11.03 9.51 11.30L9.51 11.30L9.51 11.30Q9.28 11.58 9.03 11.91L9.03 11.91L9.03 11.91Q8.78 12.25 8.55 12.56L8.55 12.56L8.55 12.56Q8.32 12.88 8.19 13.01L8.19 13.01L8.19 13.01Q8.15 13.02 8.00 12.98L8.00 12.98L8.00 12.98Q7.85 12.94 7.69 12.87L7.69 12.87L7.69 12.87Q7.52 12.81 7.37 12.75L7.37 12.75L7.37 12.75Q7.22 12.70 7.18 12.67L7.18 12.67L7.18 12.67Q7.18 12.46 7.42 12.08L7.42 12.08L7.42 12.08Q7.66 11.69 7.97 11.28L7.97 11.28L7.97 11.28Q8.29 10.86 8.60 10.49L8.60 10.49L8.60 10.49Q8.90 10.11 9.06 9.90ZM15.30 7.90L15.30 7.90L15.30 7.90Q15.36 7.83 15.57 7.67L15.57 7.67L15.57 7.67Q15.78 7.52 15.96 7.41L15.96 7.41L15.96 7.41Q16.28 7.22 16.56 7.18L16.56 7.18L16.56 7.18Q16.84 7.14 17.18 7.07L17.18 7.07L17.22 7.08L17.22 7.08Q17.70 7.18 18.03 7.29L18.03 7.29L18.03 7.29Q18.37 7.41 18.73 7.78L18.73 7.78L18.73 7.78Q19.45 8.53 19.45 9.52L19.45 9.52L19.45 9.52Q19.45 10.28 19.13 10.81L19.13 10.81L19.13 10.81Q18.82 11.34 18.26 11.82L18.26 11.82L18.26 11.82Q18.02 12.01 17.68 12.21L17.68 12.21L17.68 12.21Q17.33 12.42 16.95 12.54L16.95 12.54L16.95 12.54Q16.58 12.67 16.20 12.70L16.20 12.70L16.20 12.70Q15.83 12.73 15.53 12.57L15.53 12.57L15.53 12.57Q15.41 12.57 15.35 12.50L15.35 12.50L15.35 12.50Q15.29 12.43 15.18 12.42L15.18 12.42L15.18 12.42Q15.18 12.88 15.16 13.35L15.16 13.35L15.16 13.35Q15.15 13.82 15.12 14.28L15.12 14.28L15.16 15.54L15.16 15.54Q15.01 15.58 14.92 15.62L14.92 15.62L14.92 15.62Q14.84 15.65 14.76 15.66L14.76 15.66L14.76 15.66Q14.69 15.67 14.59 15.65L14.59 15.65L14.59 15.65Q14.50 15.64 14.36 15.58L14.36 15.58L14.36 15.58Q14.34 15.57 14.20 15.53L14.20 15.53L14.20 15.53Q14.07 15.48 14.06 15.47L14.06 15.47L14.06 15.47Q14.01 15.43 14.01 15.32L14.01 15.32L14.01 9.38L14.01 9.38Q14.01 9.11 14.01 8.95L14.01 8.95L14.01 8.95Q14.01 8.78 14.01 8.63L14.01 8.63L14.01 8.63Q14 8.48 14 8.32L14 8.32L14 8.32Q14 8.15 14 7.88L14 7.88L14 7.88Q14 7.73 13.98 7.52L13.98 7.52L13.98 7.52Q13.96 7.31 13.97 7.15L13.97 7.15L13.97 7.15Q14.01 7.14 14.13 7.11L14.13 7.11L14.13 7.11Q14.25 7.07 14.43 7.04L14.43 7.04L14.43 7.04Q14.60 7.01 14.83 7L14.83 7L14.83 7Q15.05 6.99 15.29 7.01L15.29 7.01L15.29 7.01Q15.29 7.18 15.27 7.28L15.27 7.28L15.27 7.28Q15.26 7.38 15.25 7.46L15.25 7.46L15.25 7.46Q15.25 7.55 15.25 7.64L15.25 7.64L15.25 7.64Q15.26 7.74 15.30 7.90ZM15.23 11.31L15.23 11.31L15.23 11.31Q15.65 11.54 16.18 11.40L16.18 11.40L16.18 11.40Q16.58 11.30 16.95 11.15L16.95 11.15L16.95 11.15Q17.32 11.00 17.61 10.78L17.61 10.78L17.61 10.78Q17.89 10.56 18.07 10.23L18.07 10.23L18.07 10.23Q18.24 9.90 18.24 9.42L18.24 9.42L18.24 9.42Q18.24 8.92 17.89 8.67L17.89 8.67L17.89 8.67Q17.54 8.43 17.07 8.39L17.07 8.39L17.07 8.39Q16.60 8.34 16.13 8.49L16.13 8.49L16.13 8.49Q15.65 8.64 15.40 8.90L15.40 8.90L15.40 8.90Q15.30 9.00 15.26 9.34L15.26 9.34L15.26 9.34Q15.22 9.67 15.20 10.07L15.20 10.07L15.20 10.07Q15.19 10.46 15.20 10.82L15.20 10.82L15.20 10.82Q15.22 11.17 15.23 11.31ZM25.58 12.19L25.58 12.19L25.58 12.19Q25.52 12.25 25.41 12.35L25.41 12.35L25.41 12.35Q25.30 12.45 25.23 12.49L25.23 12.49L25.23 12.49Q24.44 12.96 23.58 13.08L23.58 13.08L23.58 13.08Q22.71 13.20 21.97 12.93L21.97 12.93L21.97 12.93Q21.22 12.66 20.74 11.97L20.74 11.97L20.74 11.97Q20.26 11.28 20.26 10.15L20.26 10.15L20.26 10.15Q20.26 9.53 20.47 8.99L20.47 8.99L20.47 8.99Q20.68 8.44 21.06 7.97L21.06 7.97L21.06 7.97Q21.43 7.49 22.00 7.17L22.00 7.17L22.00 7.17Q22.57 6.86 23.17 6.80L23.17 6.80L23.17 6.80Q23.77 6.73 24.33 6.95L24.33 6.95L24.33 6.95Q24.88 7.17 25.24 7.74L25.24 7.74L25.24 7.74Q25.38 7.97 25.47 8.23L25.47 8.23L25.47 8.23Q25.55 8.48 25.56 8.75L25.56 8.75L25.56 8.75Q25.58 8.89 25.59 9.06L25.59 9.06L25.59 9.06Q25.61 9.23 25.58 9.37L25.58 9.37L25.58 9.37Q25.51 9.67 25.41 9.94L25.41 9.94L25.41 9.94Q25.37 10.05 25.16 10.13L25.16 10.13L25.16 10.13Q24.95 10.21 24.70 10.25L24.70 10.25L24.70 10.25Q24.44 10.29 24.21 10.31L24.21 10.31L24.21 10.31Q23.97 10.33 23.87 10.35L23.87 10.35L23.87 10.35Q23.31 10.40 22.76 10.42L22.76 10.42L22.76 10.42Q22.20 10.44 21.64 10.46L21.64 10.46L21.56 10.51L21.56 10.51Q21.52 10.67 21.56 10.82L21.56 10.82L21.56 10.82Q21.60 11.19 21.83 11.41L21.83 11.41L21.83 11.41Q22.05 11.63 22.34 11.76L22.34 11.76L22.34 11.76Q22.64 11.89 22.97 11.94L22.97 11.94L22.97 11.94Q23.31 11.98 23.59 11.98L23.59 11.98L23.59 11.98Q23.81 11.96 23.99 11.91L23.99 11.91L23.99 11.91Q24.16 11.87 24.35 11.77L24.35 11.77L24.35 11.77Q24.53 11.66 24.75 11.47L24.75 11.47L24.75 11.47Q24.96 11.28 25.27 10.96L25.27 10.96L25.27 10.96Q25.30 10.95 25.40 11.07L25.40 11.07L25.40 11.07Q25.49 11.20 25.60 11.36L25.60 11.36L25.60 11.36Q25.70 11.52 25.80 11.67L25.80 11.67L25.80 11.67Q25.89 11.82 25.90 11.84L25.90 11.84L25.90 11.84Q25.87 11.93 25.76 12.03L25.76 12.03L25.76 12.03Q25.65 12.14 25.58 12.19ZM24.49 9.37L24.49 9.37L24.49 9.37Q24.54 9.32 24.56 9.25L24.56 9.25L24.56 9.25Q24.58 9.18 24.58 9.11L24.58 9.11L24.58 9.11Q24.61 8.93 24.56 8.69L24.56 8.69L24.56 8.69Q24.50 8.44 24.40 8.29L24.40 8.29L24.40 8.29Q24.14 7.84 23.69 7.76L23.69 7.76L23.69 7.76Q23.24 7.67 22.79 7.86L22.79 7.86L22.79 7.86Q22.33 8.05 21.98 8.46L21.98 8.46L21.98 8.46Q21.63 8.86 21.57 9.41L21.57 9.41L21.57 9.41Q21.64 9.49 21.76 9.52L21.76 9.52L21.76 9.52Q21.78 9.53 21.98 9.53L21.98 9.53L21.98 9.53Q22.18 9.52 22.46 9.51L22.46 9.51L22.46 9.51Q22.75 9.49 23.09 9.47L23.09 9.47L23.09 9.47Q23.42 9.45 23.72 9.44L23.72 9.44L23.72 9.44Q24.01 9.42 24.23 9.40L24.23 9.40L24.23 9.40Q24.44 9.38 24.49 9.37ZM31.82 12.66L31.82 12.66L31.82 12.66Q31.72 12.67 31.63 12.68L31.63 12.68L31.63 12.68Q31.53 12.70 31.44 12.73L31.44 12.73L31.44 12.73Q31.07 12.84 30.74 12.66L30.74 12.66L30.74 12.66Q30.77 11.66 30.83 10.65L30.83 10.65L30.83 10.65Q30.84 10.36 30.83 10.04L30.83 10.04L30.83 10.04Q30.81 9.73 30.77 9.44L30.77 9.44L30.77 9.44Q30.66 8.75 30.33 8.53L30.33 8.53L30.33 8.53Q30.00 8.32 29.63 8.41L29.63 8.41L29.63 8.41Q29.26 8.50 28.95 8.81L28.95 8.81L28.95 8.81Q28.63 9.13 28.55 9.49L28.55 9.49L28.55 9.49Q28.38 10.21 28.36 10.93L28.36 10.93L28.36 10.93Q28.34 11.66 28.34 12.38L28.34 12.38L28.34 12.71L28.34 12.71Q28.22 12.71 28.06 12.73L28.06 12.73L28.06 12.73Q27.89 12.74 27.72 12.74L27.72 12.74L27.72 12.74Q27.55 12.74 27.42 12.69L27.42 12.69L27.42 12.69Q27.29 12.64 27.23 12.52L27.23 12.52L27.23 12.52Q27.23 12.40 27.23 11.99L27.23 11.99L27.23 11.99Q27.23 11.58 27.22 11.02L27.22 11.02L27.22 11.02Q27.22 10.46 27.22 9.84L27.22 9.84L27.22 9.84Q27.22 9.21 27.22 8.67L27.22 8.67L27.22 8.67Q27.23 8.13 27.25 7.77L27.25 7.77L27.25 7.77Q27.27 7.41 27.31 7.36L27.31 7.36L27.31 7.36Q27.33 7.34 27.40 7.32L27.40 7.32L27.40 7.32Q27.47 7.31 27.55 7.30L27.55 7.30L27.55 7.30Q27.64 7.29 27.71 7.29L27.71 7.29L27.71 7.29Q27.78 7.29 27.82 7.28L27.82 7.28L27.82 7.28Q27.89 7.22 28 7.25L28 7.25L28 7.25Q28.11 7.28 28.18 7.28L28.18 7.28L28.18 7.28Q28.25 7.48 28.29 7.71L28.29 7.71L28.29 7.71Q28.32 7.94 28.32 8.18L28.32 8.18L28.32 8.18Q28.69 7.77 29.17 7.47L29.17 7.47L29.17 7.47Q29.65 7.17 30.13 7.11L30.13 7.11L30.13 7.11Q30.62 7.04 31.05 7.28L31.05 7.28L31.05 7.28Q31.49 7.52 31.75 8.19L31.75 8.19L31.75 8.19Q32.02 8.85 32.04 9.58L32.04 9.58L32.04 9.58Q32.06 10.30 32.05 11.00L32.05 11.00L32.05 11.00Q32.05 11.14 32.04 11.38L32.04 11.38L32.04 11.38Q32.03 11.61 32.00 11.84L32.00 11.84L32.00 11.84Q31.98 12.08 31.93 12.31L31.93 12.31L31.93 12.31Q31.89 12.53 31.82 12.66ZM37.72 10.05L37.72 10.05L37.72 10.05Q37.95 10.22 38.00 10.38L38.00 10.38L38.00 10.38Q38.05 10.54 38.11 10.81L38.11 10.81L38.11 10.81Q38.19 11.23 38.07 11.56L38.07 11.56L38.07 11.56Q37.95 11.89 37.69 12.12L37.69 12.12L37.69 12.12Q37.42 12.36 37.06 12.53L37.06 12.53L37.06 12.53Q36.69 12.70 36.30 12.79L36.30 12.79L36.30 12.79Q35.91 12.88 35.52 12.92L35.52 12.92L35.52 12.92Q35.13 12.96 34.82 12.95L34.82 12.95L34.82 12.95Q34.33 12.92 33.89 12.76L33.89 12.76L33.89 12.76Q33.46 12.60 33.04 12.36L33.04 12.36L33.04 12.36Q33.08 12.24 33.11 12.07L33.11 12.07L33.11 12.07Q33.14 11.90 33.18 11.72L33.18 11.72L33.18 11.72Q33.22 11.55 33.29 11.40L33.29 11.40L33.29 11.40Q33.36 11.24 33.47 11.13L33.47 11.13L33.68 11.30L33.68 11.30Q33.78 11.40 33.94 11.51L33.94 11.51L33.94 11.51Q34.09 11.62 34.27 11.71L34.27 11.71L34.27 11.71Q34.44 11.80 34.62 11.86L34.62 11.86L34.62 11.86Q34.79 11.91 34.93 11.91L34.93 11.91L34.93 11.91Q35.81 11.94 36.32 11.71L36.32 11.71L36.32 11.71Q36.83 11.48 36.82 11.10L36.82 11.10L36.82 11.10Q36.82 10.93 36.65 10.82L36.65 10.82L36.65 10.82Q36.48 10.71 36.37 10.65L36.37 10.65L36.37 10.65Q35.99 10.49 35.50 10.40L35.50 10.40L35.50 10.40Q35 10.32 34.57 10.16L34.57 10.16L34.57 10.16Q34.13 10.01 33.83 9.70L33.83 9.70L33.83 9.70Q33.53 9.39 33.53 8.76L33.53 8.76L33.53 8.76Q33.53 8.36 33.74 8.03L33.74 8.03L33.74 8.03Q33.95 7.70 34.29 7.45L34.29 7.45L34.29 7.45Q34.64 7.20 35.07 7.03L35.07 7.03L35.07 7.03Q35.50 6.86 35.95 6.77L35.95 6.77L35.95 6.77Q36.40 6.68 36.82 6.69L36.82 6.69L36.82 6.69Q37.24 6.69 37.56 6.79L37.56 6.79L37.56 6.79Q37.63 6.82 37.76 6.86L37.76 6.86L37.76 6.86Q37.88 6.90 37.95 6.94L37.95 6.94L37.95 6.94Q38.01 7.10 37.94 7.20L37.94 7.20L37.94 7.20Q37.87 7.31 37.84 7.46L37.84 7.46L37.84 7.46Q37.81 7.49 37.80 7.56L37.80 7.56L37.80 7.56Q37.79 7.63 37.77 7.71L37.77 7.71L37.77 7.71Q37.76 7.78 37.75 7.85L37.75 7.85L37.75 7.85Q37.74 7.92 37.72 7.92L37.72 7.92L37.72 7.92Q37.58 7.94 37.43 7.91L37.43 7.91L37.43 7.91Q37.28 7.88 37.13 7.87L37.13 7.87L37.13 7.87Q36.82 7.84 36.47 7.85L36.47 7.85L36.47 7.85Q36.12 7.85 35.79 7.94L35.79 7.94L35.79 7.94Q35.46 8.02 35.18 8.20L35.18 8.20L35.18 8.20Q34.90 8.39 34.75 8.71L34.75 8.71L34.73 8.74L34.73 8.74Q34.75 8.88 34.84 9.00L34.84 9.00L34.84 9.00Q34.93 9.11 35.06 9.20L35.06 9.20L35.06 9.20Q35.20 9.28 35.34 9.34L35.34 9.34L35.34 9.34Q35.48 9.39 35.60 9.41L35.60 9.41L35.60 9.41Q35.92 9.45 36.25 9.51L36.25 9.51L36.25 9.51Q36.57 9.58 36.86 9.67L36.86 9.67L36.86 9.67Q37.14 9.76 37.37 9.86L37.37 9.86L37.37 9.86Q37.59 9.95 37.72 10.05ZM44.32 12.19L44.32 12.19L44.32 12.19Q44.27 12.25 44.16 12.35L44.16 12.35L44.16 12.35Q44.04 12.45 43.97 12.49L43.97 12.49L43.97 12.49Q43.19 12.96 42.32 13.08L42.32 13.08L42.32 13.08Q41.45 13.20 40.71 12.93L40.71 12.93L40.71 12.93Q39.97 12.66 39.49 11.97L39.49 11.97L39.49 11.97Q39.00 11.28 39.00 10.15L39.00 10.15L39.00 10.15Q39.00 9.53 39.21 8.99L39.21 8.99L39.21 8.99Q39.42 8.44 39.80 7.97L39.80 7.97L39.80 7.97Q40.18 7.49 40.75 7.17L40.75 7.17L40.75 7.17Q41.31 6.86 41.92 6.80L41.92 6.80L41.92 6.80Q42.52 6.73 43.07 6.95L43.07 6.95L43.07 6.95Q43.62 7.17 43.99 7.74L43.99 7.74L43.99 7.74Q44.13 7.97 44.21 8.23L44.21 8.23L44.21 8.23Q44.30 8.48 44.31 8.75L44.31 8.75L44.31 8.75Q44.32 8.89 44.34 9.06L44.34 9.06L44.34 9.06Q44.35 9.23 44.32 9.37L44.32 9.37L44.32 9.37Q44.25 9.67 44.16 9.94L44.16 9.94L44.16 9.94Q44.11 10.05 43.90 10.13L43.90 10.13L43.90 10.13Q43.69 10.21 43.44 10.25L43.44 10.25L43.44 10.25Q43.19 10.29 42.95 10.31L42.95 10.31L42.95 10.31Q42.71 10.33 42.62 10.35L42.62 10.35L42.62 10.35Q42.06 10.40 41.50 10.42L41.50 10.42L41.50 10.42Q40.95 10.44 40.39 10.46L40.39 10.46L40.31 10.51L40.31 10.51Q40.26 10.67 40.31 10.82L40.31 10.82L40.31 10.82Q40.35 11.19 40.57 11.41L40.57 11.41L40.57 11.41Q40.80 11.63 41.09 11.76L41.09 11.76L41.09 11.76Q41.38 11.89 41.72 11.94L41.72 11.94L41.72 11.94Q42.06 11.98 42.34 11.98L42.34 11.98L42.34 11.98Q42.56 11.96 42.73 11.91L42.73 11.91L42.73 11.91Q42.91 11.87 43.09 11.77L43.09 11.77L43.09 11.77Q43.27 11.66 43.49 11.47L43.49 11.47L43.49 11.47Q43.71 11.28 44.02 10.96L44.02 10.96L44.02 10.96Q44.04 10.95 44.14 11.07L44.14 11.07L44.14 11.07Q44.24 11.20 44.34 11.36L44.34 11.36L44.34 11.36Q44.45 11.52 44.54 11.67L44.54 11.67L44.54 11.67Q44.63 11.82 44.65 11.84L44.65 11.84L44.65 11.84Q44.62 11.93 44.51 12.03L44.51 12.03L44.51 12.03Q44.39 12.14 44.32 12.19ZM43.23 9.37L43.23 9.37L43.23 9.37Q43.29 9.32 43.31 9.25L43.31 9.25L43.31 9.25Q43.33 9.18 43.33 9.11L43.33 9.11L43.33 9.11Q43.36 8.93 43.30 8.69L43.30 8.69L43.30 8.69Q43.25 8.44 43.15 8.29L43.15 8.29L43.15 8.29Q42.88 7.84 42.43 7.76L42.43 7.76L42.43 7.76Q41.99 7.67 41.53 7.86L41.53 7.86L41.53 7.86Q41.08 8.05 40.73 8.46L40.73 8.46L40.73 8.46Q40.38 8.86 40.32 9.41L40.32 9.41L40.32 9.41Q40.39 9.49 40.50 9.52L40.50 9.52L40.50 9.52Q40.53 9.53 40.73 9.53L40.73 9.53L40.73 9.53Q40.92 9.52 41.21 9.51L41.21 9.51L41.21 9.51Q41.50 9.49 41.83 9.47L41.83 9.47L41.83 9.47Q42.17 9.45 42.46 9.44L42.46 9.44L42.46 9.44Q42.76 9.42 42.97 9.40L42.97 9.40L42.97 9.40Q43.19 9.38 43.23 9.37ZM55.72 4.65L55.72 4.65L55.72 4.65Q55.62 4.68 55.38 4.70L55.38 4.70L55.38 4.70Q55.13 4.73 54.80 4.75L54.80 4.75L54.80 4.75Q54.46 4.77 54.04 4.80L54.04 4.80L54.04 4.80Q53.62 4.83 53.17 4.84L53.17 4.84L53.17 4.84Q53.16 5.31 53.14 5.86L53.14 5.86L53.14 5.86Q53.13 6.41 53.12 6.99L53.12 6.99L53.12 6.99Q53.10 7.56 53.09 8.11L53.09 8.11L53.09 8.11Q53.09 8.67 53.09 9.10L53.09 9.10L53.09 9.10Q53.09 9.65 53.10 10.19L53.10 10.19L53.10 10.19Q53.12 10.74 53.13 11.28L53.13 11.28L53.13 11.28Q53.13 11.47 53.15 11.66L53.15 11.66L53.15 11.66Q53.17 11.84 53.16 12.03L53.16 12.03L53.16 12.03Q53.13 12.21 53.15 12.40L53.15 12.40L53.15 12.40Q53.17 12.59 53.12 12.75L53.12 12.75L53.12 12.75Q53.09 12.77 52.98 12.80L52.98 12.80L52.98 12.80Q52.88 12.84 52.76 12.87L52.76 12.87L52.76 12.87Q52.64 12.89 52.53 12.92L52.53 12.92L52.53 12.92Q52.43 12.95 52.40 12.95L52.40 12.95L52.40 12.95Q52.19 13.03 51.98 12.94L51.98 12.94L51.98 12.94Q51.77 12.84 51.74 12.77L51.74 12.77L51.74 12.77Q51.63 12.53 51.58 11.96L51.58 11.96L51.58 11.96Q51.52 11.40 51.51 10.65L51.51 10.65L51.51 10.65Q51.51 9.90 51.53 9.04L51.53 9.04L51.53 9.04Q51.55 8.19 51.58 7.40L51.58 7.40L51.58 7.40Q51.62 6.61 51.66 5.94L51.66 5.94L51.66 5.94Q51.70 5.28 51.73 4.90L51.73 4.90L51.73 4.90Q50.96 4.93 50.34 4.94L50.34 4.94L50.34 4.94Q49.71 4.96 49.48 4.97L49.48 4.97L49.48 4.97Q49.25 4.79 49.23 4.50L49.23 4.50L49.23 4.50Q49.21 4.21 49.22 3.79L49.22 3.79L49.22 3.79Q49.31 3.68 49.69 3.62L49.69 3.62L49.69 3.62Q50.06 3.56 50.52 3.53L50.52 3.53L50.52 3.53Q50.97 3.50 51.40 3.49L51.40 3.49L51.40 3.49Q51.83 3.49 52.00 3.47L52.00 3.47L52.00 3.47Q52.33 3.46 52.81 3.43L52.81 3.43L52.81 3.43Q53.30 3.40 53.81 3.39L53.81 3.39L53.81 3.39Q54.32 3.37 54.80 3.37L54.80 3.37L54.80 3.37Q55.29 3.37 55.61 3.40L55.61 3.40L55.61 3.40Q55.69 3.47 55.73 3.67L55.73 3.67L55.73 3.67Q55.76 3.86 55.77 4.07L55.77 4.07L55.77 4.07Q55.78 4.28 55.76 4.46L55.76 4.46L55.76 4.46Q55.75 4.63 55.72 4.65ZM59.50 7.92L59.50 7.92L59.50 7.92Q59.39 7.94 59.29 7.93L59.29 7.93L59.29 7.93Q59.19 7.92 59.09 7.92L59.09 7.92L59.09 7.92Q59.07 7.91 58.99 7.91L58.99 7.91L58.99 7.91Q58.91 7.91 58.88 7.92L58.88 7.92L58.88 7.92Q58.51 8.02 58.18 8.23L58.18 8.23L58.18 8.23Q57.86 8.44 57.60 8.71L57.60 8.71L57.60 8.71Q57.34 8.99 57.15 9.29L57.15 9.29L57.15 9.29Q56.95 9.59 56.83 9.86L56.83 9.86L56.83 9.86Q56.83 10.09 56.83 10.49L56.83 10.49L56.83 10.49Q56.84 10.88 56.84 11.29L56.84 11.29L56.84 11.29Q56.84 11.70 56.83 12.08L56.83 12.08L56.83 12.08Q56.81 12.45 56.77 12.66L56.77 12.66L56.77 12.66Q56.74 12.78 56.58 12.83L56.58 12.83L56.58 12.83Q56.42 12.88 56.22 12.89L56.22 12.89L56.22 12.89Q56.03 12.89 55.83 12.88L55.83 12.88L55.83 12.88Q55.64 12.87 55.54 12.85L55.54 12.85L55.54 12.85Q55.54 11.49 55.56 10.16L55.56 10.16L55.56 10.16Q55.58 8.82 55.58 7.46L55.58 7.46L55.58 7.46Q55.58 7.31 55.59 7.15L55.59 7.15L55.59 7.15Q55.61 6.99 55.62 6.82L55.62 6.82L55.62 6.82Q55.75 6.82 55.93 6.79L55.93 6.79L55.93 6.79Q56.11 6.76 56.22 6.79L56.22 6.79L56.22 6.79Q56.39 6.83 56.52 6.94L56.52 6.94L56.52 6.94Q56.66 7.04 56.78 7.28L56.78 7.28L56.78 7.28Q56.83 7.46 56.83 7.66L56.83 7.66L56.83 7.66Q56.83 7.85 56.84 8.04L56.84 8.04L56.85 8.04L56.85 8.04Q57.05 7.85 57.27 7.63L57.27 7.63L57.27 7.63Q57.48 7.41 57.79 7.23L57.79 7.23L57.79 7.23Q58.10 7.06 58.52 6.97L58.52 6.97L58.52 6.97Q58.94 6.89 59.54 6.99L59.54 6.99L59.54 6.99Q59.61 7.04 59.63 7.17L59.63 7.17L59.63 7.17Q59.64 7.31 59.62 7.46L59.62 7.46L59.62 7.46Q59.60 7.60 59.56 7.74L59.56 7.74L59.56 7.74Q59.53 7.87 59.50 7.92ZM64.37 7.53L64.37 7.53L64.37 7.53Q64.62 7.90 64.72 8.41L64.72 8.41L64.72 8.41Q64.81 8.93 64.82 9.50L64.82 9.50L64.82 9.50Q64.83 10.07 64.80 10.62L64.80 10.62L64.80 10.62Q64.76 11.17 64.75 11.59L64.75 11.59L64.74 11.61L64.74 11.61Q64.74 11.90 64.72 12.28L64.72 12.28L64.72 12.28Q64.69 12.66 64.69 12.85L64.69 12.85L64.69 12.85Q64.50 12.87 64.32 12.90L64.32 12.90L64.32 12.90Q64.13 12.94 63.94 12.94L63.94 12.94L63.94 12.94Q63.87 12.80 63.74 12.71L63.74 12.71L63.74 12.71Q63.62 12.63 63.60 12.46L63.60 12.46L63.60 12.46Q63.52 12.49 63.45 12.51L63.45 12.51L63.45 12.51Q63.39 12.53 63.33 12.56L63.33 12.56L63.33 12.56Q63.27 12.59 63.17 12.61L63.17 12.61L63.17 12.61Q63.07 12.64 62.92 12.68L62.92 12.68L62.92 12.68Q62.72 12.73 62.53 12.77L62.53 12.77L62.53 12.77Q62.34 12.81 62.15 12.81L62.15 12.81L62.15 12.81Q62.12 12.81 62.12 12.82L62.12 12.82L62.12 12.82Q61.67 12.82 61.24 12.74L61.24 12.74L61.24 12.74Q60.82 12.66 60.45 12.33L60.45 12.33L60.45 12.33Q59.99 11.94 59.99 11.34L59.99 11.34L59.99 11.34Q59.99 11.30 59.99 11.30L59.99 11.30L59.99 11.10L59.99 11.10Q59.99 10.72 60.21 10.43L60.21 10.43L60.21 10.43Q60.44 10.14 60.77 9.93L60.77 9.93L60.77 9.93Q61.10 9.72 61.47 9.58L61.47 9.58L61.47 9.58Q61.85 9.45 62.17 9.39L62.17 9.39L62.17 9.39Q62.50 9.34 62.84 9.34L62.84 9.34L62.84 9.34Q63.18 9.34 63.50 9.28L63.50 9.28L63.50 9.28Q63.49 9.06 63.50 8.82L63.50 8.82L63.50 8.82Q63.50 8.58 63.43 8.36L63.43 8.36L63.43 8.36Q63.35 8.05 63.12 7.92L63.12 7.92L63.12 7.92Q62.89 7.78 62.60 7.78L62.60 7.78L62.60 7.78Q62.31 7.77 62.03 7.85L62.03 7.85L62.03 7.85Q61.74 7.94 61.53 8.08L61.53 8.08L61.53 8.08Q61.29 8.23 61.11 8.44L61.11 8.44L61.11 8.44Q60.93 8.64 60.76 8.85L60.76 8.85L60.76 8.85Q60.73 8.85 60.66 8.79L60.66 8.79L60.66 8.79Q60.58 8.72 60.49 8.64L60.49 8.64L60.49 8.64Q60.40 8.57 60.32 8.50L60.32 8.50L60.32 8.50Q60.24 8.43 60.21 8.43L60.21 8.43L60.21 8.43Q60.47 7.77 61.00 7.32L61.00 7.32L61.00 7.32Q61.53 6.87 62.14 6.72L62.14 6.72L62.14 6.72Q62.75 6.57 63.36 6.75L63.36 6.75L63.36 6.75Q63.97 6.93 64.37 7.53ZM63.59 10.23L63.59 10.23L63.59 10.23Q63.53 10.19 63.42 10.20L63.42 10.20L63.42 10.20Q63.31 10.21 63.24 10.18L63.24 10.18L63.24 10.18Q62.86 10.18 62.59 10.25L62.59 10.25L62.59 10.25Q62.33 10.32 61.96 10.44L61.96 10.44L61.96 10.44Q61.94 10.46 61.89 10.46L61.89 10.46L61.89 10.46Q61.85 10.47 61.82 10.50L61.82 10.50L61.82 10.50Q61.66 10.57 61.46 10.74L61.46 10.74L61.46 10.74Q61.26 10.91 61.24 11.10L61.24 11.10L61.24 11.10Q61.24 11.17 61.24 11.22L61.24 11.22L61.24 11.22Q61.24 11.27 61.26 11.34L61.26 11.34L61.26 11.34Q61.33 11.54 61.69 11.60L61.69 11.60L61.69 11.60Q62.05 11.66 62.45 11.63L62.45 11.63L62.45 11.63Q62.86 11.61 63.20 11.51L63.20 11.51L63.20 11.51Q63.53 11.41 63.55 11.30L63.55 11.30L63.55 11.30Q63.57 11.06 63.58 10.77L63.58 10.77L63.58 10.77Q63.59 10.47 63.59 10.23ZM70 12.54L70 12.54L70 12.54Q69.12 13.01 68.37 13.02L68.37 13.02L68.37 13.02Q67.62 13.03 67.08 12.74L67.08 12.74L67.08 12.74Q66.54 12.45 66.23 11.91L66.23 11.91L66.23 11.91Q65.93 11.38 65.89 10.75L65.89 10.75L65.89 10.75Q65.86 10.11 66.14 9.44L66.14 9.44L66.14 9.44Q66.43 8.76 67.07 8.19L67.07 8.19L67.07 8.19Q68.14 7.25 69.58 7.21L69.58 7.21L69.58 7.21Q69.86 7.20 70.13 7.23L70.13 7.23L70.13 7.23Q70.41 7.27 70.66 7.39L70.66 7.39L70.66 7.39Q70.74 7.52 70.76 7.63L70.76 7.63L70.76 7.63Q70.77 7.74 70.76 7.85L70.76 7.85L70.76 7.85Q70.74 7.97 70.70 8.09L70.70 8.09L70.70 8.09Q70.66 8.22 70.64 8.36L70.64 8.36L70.64 8.36Q70.60 8.53 70.50 8.56L70.50 8.56L70.50 8.56Q70.41 8.60 70.28 8.57L70.28 8.57L70.28 8.57Q70.15 8.55 70.02 8.51L70.02 8.51L70.02 8.51Q69.89 8.47 69.78 8.50L69.78 8.50L69.78 8.50Q69.66 8.46 69.44 8.48L69.44 8.48L69.44 8.48Q69.22 8.51 69.10 8.46L69.10 8.46L69.10 8.46Q68.57 8.53 68.17 8.80L68.17 8.80L68.17 8.80Q67.76 9.07 67.51 9.44L67.51 9.44L67.51 9.44Q67.26 9.81 67.17 10.23L67.17 10.23L67.17 10.23Q67.09 10.65 67.20 11.00L67.20 11.00L67.20 11.00Q67.31 11.35 67.64 11.59L67.64 11.59L67.64 11.59Q67.97 11.82 68.53 11.82L68.53 11.82L68.53 11.82Q69.19 11.82 69.75 11.47L69.75 11.47L69.75 11.47Q70.31 11.13 70.77 10.71L70.77 10.71L70.77 10.71Q70.97 10.79 71.08 10.94L71.08 10.94L71.08 10.94Q71.20 11.09 71.23 11.45L71.23 11.45L71.23 11.45Q71.19 11.61 71.04 11.77L71.04 11.77L71.04 11.77Q70.90 11.94 70.71 12.09L70.71 12.09L70.71 12.09Q70.53 12.24 70.34 12.36L70.34 12.36L70.34 12.36Q70.14 12.47 70 12.54ZM75.07 9.11L75.07 9.11L75.07 9.11Q75.18 9.39 75.47 9.76L75.47 9.76L75.47 9.76Q75.75 10.12 76.10 10.51L76.10 10.51L76.10 10.51Q76.45 10.91 76.80 11.27L76.80 11.27L76.80 11.27Q77.14 11.63 77.36 11.90L77.36 11.90L77.36 11.90Q77.43 11.98 77.51 12.05L77.51 12.05L77.51 12.05Q77.59 12.12 77.63 12.21L77.63 12.21L77.63 12.21Q77.60 12.29 77.49 12.37L77.49 12.37L77.49 12.37Q77.38 12.45 77.31 12.49L77.31 12.49L77.31 12.49Q77.24 12.54 77.12 12.61L77.12 12.61L77.12 12.61Q77 12.67 76.90 12.67L76.90 12.67L76.90 12.67Q76.52 12.67 76.15 12.33L76.15 12.33L76.15 12.33Q75.78 11.98 75.42 11.54L75.42 11.54L75.42 11.54Q75.07 11.10 74.71 10.68L74.71 10.68L74.71 10.68Q74.35 10.25 73.98 10.09L73.98 10.09L73.98 10.09Q73.74 10.18 73.55 10.34L73.55 10.34L73.55 10.34Q73.36 10.50 73.29 10.67L73.29 10.67L73.33 12.19L73.33 12.19Q73.33 12.42 73.28 12.52L73.28 12.52L73.28 12.52Q73.23 12.61 73.14 12.64L73.14 12.64L73.14 12.64Q73.04 12.67 72.90 12.65L72.90 12.65L72.90 12.65Q72.76 12.63 72.60 12.60L72.60 12.60L72.60 12.60Q72.48 12.57 72.35 12.56L72.35 12.56L72.35 12.56Q72.23 12.54 72.14 12.43L72.14 12.43L72.14 12.43Q72.06 11.90 72.11 11.37L72.11 11.37L72.11 11.37Q72.16 10.84 72.13 10.30L72.13 10.30L72.13 10.30Q72.09 9.38 72.09 8.48L72.09 8.48L72.09 8.48Q72.10 7.57 72.13 6.65L72.13 6.65L72.13 6.65Q72.14 5.84 72.17 5.03L72.17 5.03L72.17 5.03Q72.20 4.23 72.31 3.43L72.31 3.43L72.31 3.43Q72.52 3.37 72.69 3.26L72.69 3.26L72.69 3.26Q72.86 3.26 73.00 3.26L73.00 3.26L73.00 3.26Q73.15 3.26 73.29 3.39L73.29 3.39L73.29 3.39Q73.33 3.51 73.35 3.91L73.35 3.91L73.35 3.91Q73.36 4.31 73.36 4.86L73.36 4.86L73.36 4.86Q73.36 5.40 73.35 6.03L73.35 6.03L73.35 6.03Q73.35 6.66 73.33 7.25L73.33 7.25L73.33 7.25Q73.32 7.83 73.31 8.29L73.31 8.29L73.31 8.29Q73.30 8.76 73.30 9.00L73.30 9.00L73.30 9.00Q73.42 8.97 73.65 8.79L73.65 8.79L73.65 8.79Q73.89 8.60 74.19 8.34L74.19 8.34L74.19 8.34Q74.49 8.08 74.83 7.79L74.83 7.79L74.83 7.79Q75.17 7.50 75.47 7.25L75.47 7.25L75.47 7.25Q75.78 7 76.03 6.83L76.03 6.83L76.03 6.83Q76.27 6.66 76.41 6.66L76.41 6.66L76.41 6.66Q76.45 6.66 76.53 6.72L76.53 6.72L76.53 6.72Q76.61 6.78 76.70 6.86L76.70 6.86L76.70 6.86Q76.79 6.94 76.87 7.06L76.87 7.06L76.87 7.06Q76.94 7.17 76.97 7.29L76.97 7.29L76.97 7.29Q76.94 7.36 76.69 7.62L76.69 7.62L76.69 7.62Q76.44 7.87 76.11 8.17L76.11 8.17L76.11 8.17Q75.78 8.47 75.48 8.74L75.48 8.74L75.48 8.74Q75.18 9.02 75.07 9.11ZM83.26 12.19L83.26 12.19L83.26 12.19Q83.20 12.25 83.09 12.35L83.09 12.35L83.09 12.35Q82.98 12.45 82.91 12.49L82.91 12.49L82.91 12.49Q82.12 12.96 81.26 13.08L81.26 13.08L81.26 13.08Q80.39 13.20 79.65 12.93L79.65 12.93L79.65 12.93Q78.90 12.66 78.42 11.97L78.42 11.97L78.42 11.97Q77.94 11.28 77.94 10.15L77.94 10.15L77.94 10.15Q77.94 9.53 78.15 8.99L78.15 8.99L78.15 8.99Q78.36 8.44 78.74 7.97L78.74 7.97L78.74 7.97Q79.11 7.49 79.68 7.17L79.68 7.17L79.68 7.17Q80.25 6.86 80.85 6.80L80.85 6.80L80.85 6.80Q81.45 6.73 82.01 6.95L82.01 6.95L82.01 6.95Q82.56 7.17 82.92 7.74L82.92 7.74L82.92 7.74Q83.06 7.97 83.15 8.23L83.15 8.23L83.15 8.23Q83.23 8.48 83.24 8.75L83.24 8.75L83.24 8.75Q83.26 8.89 83.27 9.06L83.27 9.06L83.27 9.06Q83.29 9.23 83.26 9.37L83.26 9.37L83.26 9.37Q83.19 9.67 83.09 9.94L83.09 9.94L83.09 9.94Q83.05 10.05 82.84 10.13L82.84 10.13L82.84 10.13Q82.63 10.21 82.38 10.25L82.38 10.25L82.38 10.25Q82.12 10.29 81.89 10.31L81.89 10.31L81.89 10.31Q81.65 10.33 81.55 10.35L81.55 10.35L81.55 10.35Q80.99 10.40 80.44 10.42L80.44 10.42L80.44 10.42Q79.88 10.44 79.32 10.46L79.32 10.46L79.24 10.51L79.24 10.51Q79.20 10.67 79.24 10.82L79.24 10.82L79.24 10.82Q79.28 11.19 79.51 11.41L79.51 11.41L79.51 11.41Q79.73 11.63 80.02 11.76L80.02 11.76L80.02 11.76Q80.32 11.89 80.65 11.94L80.65 11.94L80.65 11.94Q80.99 11.98 81.27 11.98L81.27 11.98L81.27 11.98Q81.49 11.96 81.67 11.91L81.67 11.91L81.67 11.91Q81.84 11.87 82.03 11.77L82.03 11.77L82.03 11.77Q82.21 11.66 82.43 11.47L82.43 11.47L82.43 11.47Q82.64 11.28 82.95 10.96L82.95 10.96L82.95 10.96Q82.98 10.95 83.08 11.07L83.08 11.07L83.08 11.07Q83.17 11.20 83.28 11.36L83.28 11.36L83.28 11.36Q83.38 11.52 83.48 11.67L83.48 11.67L83.48 11.67Q83.57 11.82 83.58 11.84L83.58 11.84L83.58 11.84Q83.55 11.93 83.44 12.03L83.44 12.03L83.44 12.03Q83.33 12.14 83.26 12.19ZM82.17 9.37L82.17 9.37L82.17 9.37Q82.22 9.32 82.24 9.25L82.24 9.25L82.24 9.25Q82.26 9.18 82.26 9.11L82.26 9.11L82.26 9.11Q82.29 8.93 82.24 8.69L82.24 8.69L82.24 8.69Q82.18 8.44 82.08 8.29L82.08 8.29L82.08 8.29Q81.82 7.84 81.37 7.76L81.37 7.76L81.37 7.76Q80.92 7.67 80.47 7.86L80.47 7.86L80.47 7.86Q80.01 8.05 79.66 8.46L79.66 8.46L79.66 8.46Q79.31 8.86 79.25 9.41L79.25 9.41L79.25 9.41Q79.32 9.49 79.44 9.52L79.44 9.52L79.44 9.52Q79.46 9.53 79.66 9.53L79.66 9.53L79.66 9.53Q79.86 9.52 80.14 9.51L80.14 9.51L80.14 9.51Q80.43 9.49 80.77 9.47L80.77 9.47L80.77 9.47Q81.10 9.45 81.40 9.44L81.40 9.44L81.40 9.44Q81.69 9.42 81.91 9.40L81.91 9.40L81.91 9.40Q82.12 9.38 82.17 9.37ZM88.47 7.92L88.47 7.92L88.47 7.92Q88.35 7.94 88.26 7.93L88.26 7.93L88.26 7.93Q88.16 7.92 88.06 7.92L88.06 7.92L88.06 7.92Q88.03 7.91 87.95 7.91L87.95 7.91L87.95 7.91Q87.88 7.91 87.85 7.92L87.85 7.92L87.85 7.92Q87.47 8.02 87.15 8.23L87.15 8.23L87.15 8.23Q86.83 8.44 86.57 8.71L86.57 8.71L86.57 8.71Q86.31 8.99 86.11 9.29L86.11 9.29L86.11 9.29Q85.92 9.59 85.79 9.86L85.79 9.86L85.79 9.86Q85.79 10.09 85.80 10.49L85.80 10.49L85.80 10.49Q85.81 10.88 85.81 11.29L85.81 11.29L85.81 11.29Q85.81 11.70 85.79 12.08L85.79 12.08L85.79 12.08Q85.78 12.45 85.74 12.66L85.74 12.66L85.74 12.66Q85.71 12.78 85.55 12.83L85.55 12.83L85.55 12.83Q85.39 12.88 85.19 12.89L85.19 12.89L85.19 12.89Q84.99 12.89 84.80 12.88L84.80 12.88L84.80 12.88Q84.60 12.87 84.50 12.85L84.50 12.85L84.50 12.85Q84.50 11.49 84.53 10.16L84.53 10.16L84.53 10.16Q84.55 8.82 84.55 7.46L84.55 7.46L84.55 7.46Q84.55 7.31 84.56 7.15L84.56 7.15L84.56 7.15Q84.57 6.99 84.59 6.82L84.59 6.82L84.59 6.82Q84.71 6.82 84.90 6.79L84.90 6.79L84.90 6.79Q85.08 6.76 85.19 6.79L85.19 6.79L85.19 6.79Q85.36 6.83 85.49 6.94L85.49 6.94L85.49 6.94Q85.62 7.04 85.75 7.28L85.75 7.28L85.75 7.28Q85.79 7.46 85.79 7.66L85.79 7.66L85.79 7.66Q85.79 7.85 85.81 8.04L85.81 8.04L85.82 8.04L85.82 8.04Q86.02 7.85 86.23 7.63L86.23 7.63L86.23 7.63Q86.45 7.41 86.76 7.23L86.76 7.23L86.76 7.23Q87.07 7.06 87.49 6.97L87.49 6.97L87.49 6.97Q87.91 6.89 88.51 6.99L88.51 6.99L88.51 6.99Q88.58 7.04 88.59 7.17L88.59 7.17L88.59 7.17Q88.61 7.31 88.59 7.46L88.59 7.46L88.59 7.46Q88.56 7.60 88.53 7.74L88.53 7.74L88.53 7.74Q88.49 7.87 88.47 7.92Z"></path></g><defs data-v-fde0c5aa=""><!----></defs><g data-v-fde0c5aa="" id="7191848b-a1bd-408c-81b0-1935830f6b70" stroke="none" fill="#004452ff" transform="matrix(0.09768837315756006,0,0,0.09768837315756006,40,124.99177647166462)"><path d="M512 480v32H0V0h32v480h480zM228.906 177.719l130.719 32.656L404.875 135l41 24.625L448 32 336.406 93.938l41 24.625-33.031 55.063-125.281-31.344L84.688 276.688l22.625 22.625 121.593-121.594zM192 448h64V217.469l-17.281-4.313L192 259.875V448zM96 333.25V448h64V291.875l-52.688 52.688L96 333.25zM384 232v216h64V198.219l-32.156-19.281L384 232zm-32 216V241.469l-64-16V448h64z"></path></g><defs data-v-fde0c5aa=""><!----></defs><g data-v-fde0c5aa="" id="36e7f741-d694-4460-ae93-8fc5ca1c3222" fill="#12292A" transform="matrix(0.6551135469344291,0,0,0.6551135469344291,102.66792664626543,160.29259395469103)"><path d="M6.85 8.15L6.85 8.15L6.85 8.15Q6.75 8.18 6.29 8.20L6.29 8.20L6.29 8.20Q5.84 8.22 5.21 8.23L5.21 8.23L5.21 8.23Q4.58 8.23 3.85 8.24L3.85 8.24L3.85 8.24Q3.12 8.25 2.48 8.25L2.48 8.25L2.48 8.25Q1.83 8.25 1.35 8.25L1.35 8.25L1.35 8.25Q0.87 8.25 0.71 8.25L0.71 8.25L0.71 8.25Q0.56 8.09 0.54 7.85L0.54 7.85L0.54 7.85Q0.52 7.60 0.55 7.24L0.55 7.24L0.55 7.24Q0.60 7.14 0.87 7.10L0.87 7.10L0.87 7.10Q1.13 7.06 1.46 7.04L1.46 7.04L1.46 7.04Q1.78 7.03 2.07 7.03L2.07 7.03L2.07 7.03Q2.37 7.03 2.49 7.03L2.49 7.03L2.49 7.03Q2.65 7.03 2.98 7.02L2.98 7.02L2.98 7.02Q3.32 7.01 3.75 7.01L3.75 7.01L3.75 7.01Q4.17 7.01 4.64 7.01L4.64 7.01L4.64 7.01Q5.11 7.01 5.53 7.02L5.53 7.02L5.53 7.02Q5.95 7.03 6.29 7.05L6.29 7.05L6.29 7.05Q6.62 7.07 6.78 7.08L6.78 7.08L6.78 7.08Q6.83 7.14 6.86 7.31L6.86 7.31L6.86 7.31Q6.89 7.48 6.89 7.66L6.89 7.66L6.89 7.66Q6.89 7.84 6.87 7.99L6.87 7.99L6.87 7.99Q6.86 8.13 6.85 8.15ZM6.85 10.39L6.85 10.39L6.85 10.39Q6.75 10.42 6.29 10.44L6.29 10.44L6.29 10.44Q5.84 10.46 5.21 10.46L5.21 10.46L5.21 10.46Q4.58 10.47 3.85 10.48L3.85 10.48L3.85 10.48Q3.12 10.49 2.48 10.49L2.48 10.49L2.48 10.49Q1.83 10.49 1.35 10.49L1.35 10.49L1.35 10.49Q0.87 10.49 0.71 10.49L0.71 10.49L0.71 10.49Q0.56 10.33 0.54 10.09L0.54 10.09L0.54 10.09Q0.52 9.84 0.55 9.48L0.55 9.48L0.55 9.48Q0.60 9.38 0.87 9.34L0.87 9.34L0.87 9.34Q1.13 9.30 1.46 9.28L1.46 9.28L1.46 9.28Q1.78 9.27 2.07 9.27L2.07 9.27L2.07 9.27Q2.37 9.27 2.49 9.27L2.49 9.27L2.49 9.27Q2.65 9.27 2.98 9.26L2.98 9.26L2.98 9.26Q3.32 9.25 3.75 9.25L3.75 9.25L3.75 9.25Q4.17 9.25 4.64 9.25L4.64 9.25L4.64 9.25Q5.11 9.25 5.53 9.26L5.53 9.26L5.53 9.26Q5.95 9.27 6.29 9.29L6.29 9.29L6.29 9.29Q6.62 9.31 6.78 9.32L6.78 9.32L6.78 9.32Q6.83 9.38 6.86 9.55L6.86 9.55L6.86 9.55Q6.89 9.72 6.89 9.90L6.89 9.90L6.89 9.90Q6.89 10.08 6.87 10.23L6.87 10.23L6.87 10.23Q6.86 10.37 6.85 10.39ZM72.86 11.26L72.86 11.26L72.86 11.26Q72.83 11.48 72.81 11.84L72.81 11.84L72.81 11.84Q72.79 12.19 72.76 12.67L72.76 12.67L72.76 12.67Q72.69 12.70 72.55 12.68L72.55 12.68L72.55 12.68Q72.42 12.67 72.35 12.64L72.35 12.64L72.35 12.64Q72.20 12.70 72.11 12.66L72.11 12.66L72.11 12.66Q72.03 12.61 71.86 12.59L71.86 12.59L71.86 12.59Q71.85 12.50 71.84 12.35L71.84 12.35L71.84 12.35Q71.83 12.19 71.82 12.03L71.82 12.03L71.82 12.03Q71.81 11.87 71.80 11.72L71.80 11.72L71.80 11.72Q71.79 11.56 71.79 11.47L71.79 11.47L71.33 11.47L71.33 11.47Q70.84 11.44 70.41 11.23L70.41 11.23L70.41 11.23Q69.97 11.03 69.57 10.74L69.57 10.74L69.57 10.74Q69.61 10.58 69.64 10.38L69.64 10.38L69.64 10.38Q69.66 10.18 69.71 9.97L69.71 9.97L69.71 9.97Q69.75 9.77 69.81 9.58L69.81 9.58L69.81 9.58Q69.87 9.38 69.99 9.24L69.99 9.24L70.20 9.45L70.20 9.45Q70.29 9.58 70.45 9.71L70.45 9.71L70.45 9.71Q70.60 9.84 70.78 9.95L70.78 9.95L70.78 9.95Q70.95 10.07 71.13 10.14L71.13 10.14L71.13 10.14Q71.30 10.21 71.44 10.21L71.44 10.21L71.44 10.21Q72.31 10.23 72.82 9.95L72.82 9.95L72.82 9.95Q73.33 9.66 73.32 9.20L73.32 9.20L73.32 9.20Q73.30 9.00 73.14 8.87L73.14 8.87L73.14 8.87Q72.98 8.74 72.87 8.67L72.87 8.67L72.87 8.67Q72.62 8.53 72.31 8.44L72.31 8.44L72.31 8.44Q72.00 8.34 71.69 8.26L71.69 8.26L71.69 8.26Q71.39 8.18 71.08 8.06L71.08 8.06L71.08 8.06Q70.78 7.94 70.56 7.73L70.56 7.73L70.56 7.73Q70.34 7.52 70.20 7.19L70.20 7.19L70.20 7.19Q70.06 6.86 70.06 6.36L70.06 6.36L70.06 6.36Q70.06 5.91 70.22 5.54L70.22 5.54L70.22 5.54Q70.39 5.17 70.68 4.87L70.68 4.87L70.68 4.87Q70.97 4.58 71.33 4.36L71.33 4.36L71.33 4.36Q71.69 4.14 72.10 4.02L72.10 4.02L72.10 4.02Q72.09 3.88 72.09 3.68L72.09 3.68L72.09 3.68Q72.09 3.49 72.10 3.29L72.10 3.29L72.10 3.29Q72.11 3.09 72.14 2.92L72.14 2.92L72.14 2.92Q72.17 2.74 72.23 2.62L72.23 2.62L72.23 2.62Q72.51 2.59 72.72 2.59L72.72 2.59L72.72 2.59Q72.94 2.59 73.15 2.70L73.15 2.70L73.21 3.05L73.19 3.07L73.19 3.07Q73.19 3.23 73.18 3.49L73.18 3.49L73.18 3.49Q73.18 3.74 73.16 3.84L73.16 3.84L73.16 3.84Q73.67 3.81 74.05 3.95L74.05 3.95L74.05 3.95Q74.13 3.98 74.26 4.03L74.26 4.03L74.26 4.03Q74.38 4.07 74.45 4.13L74.45 4.13L74.45 4.13Q74.51 4.31 74.44 4.45L74.44 4.45L74.44 4.45Q74.37 4.58 74.34 4.76L74.34 4.76L74.34 4.76Q74.31 4.79 74.30 4.88L74.30 4.88L74.30 4.88Q74.28 4.97 74.27 5.07L74.27 5.07L74.27 5.07Q74.26 5.17 74.25 5.25L74.25 5.25L74.25 5.25Q74.24 5.33 74.21 5.33L74.21 5.33L74.21 5.33Q74.07 5.36 73.92 5.31L73.92 5.31L73.92 5.31Q73.77 5.26 73.63 5.25L73.63 5.25L73.63 5.25Q73.32 5.22 72.96 5.23L72.96 5.23L72.96 5.23Q72.60 5.24 72.27 5.34L72.27 5.34L72.27 5.34Q71.93 5.45 71.66 5.67L71.66 5.67L71.66 5.67Q71.39 5.89 71.26 6.29L71.26 6.29L71.25 6.33L71.25 6.33Q71.26 6.50 71.35 6.64L71.35 6.64L71.35 6.64Q71.44 6.79 71.57 6.90L71.57 6.90L71.57 6.90Q71.69 7 71.84 7.07L71.84 7.07L71.84 7.07Q71.99 7.14 72.11 7.15L72.11 7.15L72.11 7.15Q72.42 7.20 72.74 7.28L72.74 7.28L72.74 7.28Q73.07 7.36 73.35 7.47L73.35 7.47L73.35 7.47Q73.63 7.57 73.86 7.69L73.86 7.69L73.86 7.69Q74.09 7.80 74.21 7.92L74.21 7.92L74.21 7.92Q74.44 8.13 74.49 8.33L74.49 8.33L74.49 8.33Q74.54 8.53 74.59 8.85L74.59 8.85L74.59 8.85Q74.68 9.35 74.56 9.75L74.56 9.75L74.56 9.75Q74.44 10.15 74.19 10.44L74.19 10.44L74.19 10.44Q73.93 10.74 73.58 10.93L73.58 10.93L73.58 10.93Q73.23 11.13 72.86 11.26ZM77.03 7.17L77.03 7.17L77.03 7.17Q77.34 7.08 77.64 6.94L77.64 6.94L77.64 6.94Q77.94 6.80 78.05 6.55L78.05 6.55L78.05 6.55Q78.08 6.48 78.08 6.13L78.08 6.13L78.08 6.13Q78.08 5.77 78.06 5.34L78.06 5.34L78.06 5.34Q78.05 4.91 78.03 4.52L78.03 4.52L78.03 4.52Q78.01 4.13 78.01 4.00L78.01 4.00L78.01 4.00Q77.98 3.50 78.03 3.09L78.03 3.09L78.03 3.09Q78.08 2.69 78.26 2.38L78.26 2.38L78.26 2.38Q78.44 2.07 78.78 1.86L78.78 1.86L78.78 1.86Q79.13 1.64 79.69 1.48L79.69 1.48L79.69 1.48Q79.94 1.50 80.07 1.75L80.07 1.75L80.07 1.75Q80.19 2.00 80.16 2.30L80.16 2.30L80.16 2.30Q80.02 2.32 79.85 2.37L79.85 2.37L79.85 2.37Q79.67 2.41 79.51 2.48L79.51 2.48L79.51 2.48Q79.35 2.55 79.23 2.65L79.23 2.65L79.23 2.65Q79.10 2.76 79.04 2.91L79.04 2.91L79.04 2.91Q79.03 2.97 79.02 3.18L79.02 3.18L79.02 3.18Q79.00 3.39 79.00 3.68L79.00 3.68L79.00 3.68Q79.00 3.96 79.00 4.30L79.00 4.30L79.00 4.30Q79.00 4.63 79.01 4.92L79.01 4.92L79.01 4.92Q79.02 5.21 79.02 5.43L79.02 5.43L79.02 5.43Q79.02 5.66 79.03 5.71L79.03 5.71L79.03 5.71Q79.04 6.03 79.04 6.31L79.04 6.31L79.04 6.31Q79.04 6.59 78.98 6.83L78.98 6.83L78.98 6.83Q78.92 7.07 78.78 7.27L78.78 7.27L78.78 7.27Q78.64 7.46 78.37 7.62L78.37 7.62L78.37 7.62Q78.64 7.77 78.78 7.97L78.78 7.97L78.78 7.97Q78.92 8.16 78.98 8.40L78.98 8.40L78.98 8.40Q79.04 8.64 79.04 8.92L79.04 8.92L79.04 8.92Q79.04 9.20 79.03 9.52L79.03 9.52L79.03 9.52Q79.03 9.58 79.02 9.80L79.02 9.80L79.02 9.80Q79.02 10.02 79.01 10.31L79.01 10.31L79.01 10.31Q79.00 10.60 79.00 10.93L79.00 10.93L79.00 10.93Q79.00 11.27 79.00 11.56L79.00 11.56L79.00 11.56Q79.00 11.84 79.02 12.05L79.02 12.05L79.02 12.05Q79.03 12.26 79.04 12.32L79.04 12.32L79.04 12.32Q79.10 12.47 79.23 12.58L79.23 12.58L79.23 12.58Q79.35 12.68 79.51 12.75L79.51 12.75L79.51 12.75Q79.67 12.82 79.85 12.87L79.85 12.87L79.85 12.87Q80.02 12.91 80.16 12.94L80.16 12.94L80.16 12.94Q80.19 13.23 80.07 13.48L80.07 13.48L80.07 13.48Q79.94 13.73 79.69 13.75L79.69 13.75L79.69 13.75Q79.13 13.61 78.78 13.38L78.78 13.38L78.78 13.38Q78.44 13.16 78.26 12.85L78.26 12.85L78.26 12.85Q78.08 12.54 78.03 12.14L78.03 12.14L78.03 12.14Q77.98 11.73 78.01 11.23L78.01 11.23L78.01 11.23Q78.01 11.10 78.03 10.72L78.03 10.72L78.03 10.72Q78.05 10.33 78.06 9.90L78.06 9.90L78.06 9.90Q78.08 9.46 78.08 9.11L78.08 9.11L78.08 9.11Q78.08 8.75 78.05 8.68L78.05 8.68L78.05 8.68Q77.94 8.43 77.64 8.29L77.64 8.29L77.64 8.29Q77.34 8.15 77.03 8.06L77.03 8.06L77.03 8.06Q76.93 8.01 76.89 7.86L76.89 7.86L76.89 7.86Q76.85 7.71 76.86 7.56L76.86 7.56L76.86 7.56Q76.87 7.41 76.92 7.29L76.92 7.29L76.92 7.29Q76.96 7.17 77.03 7.17ZM82.56 12.50L82.56 12.50L82.56 12.50Q82.47 12.61 82.43 12.68L82.43 12.68L82.43 12.68Q82.39 12.74 82.36 12.85L82.36 12.85L82.36 12.85Q82.15 12.85 81.86 12.84L81.86 12.84L81.86 12.84Q81.56 12.82 81.42 12.74L81.42 12.74L81.42 12.74Q81.33 12.05 81.31 11.34L81.31 11.34L81.31 11.34Q81.30 10.63 81.33 9.91L81.33 9.91L81.33 9.91Q81.35 9.20 81.40 8.48L81.40 8.48L81.40 8.48Q81.44 7.76 81.44 7.04L81.44 7.04L81.45 7.03L81.45 7.03Q81.45 6.66 81.47 6.31L81.47 6.31L81.47 6.31Q81.49 5.96 81.49 5.60L81.49 5.60L81.49 5.60Q81.49 5.45 81.49 5.31L81.49 5.31L81.49 5.31Q81.48 5.17 81.51 5.01L81.51 5.01L81.51 5.01Q81.54 4.77 81.51 4.59L81.51 4.59L81.51 4.59Q81.49 4.40 81.52 4.16L81.52 4.16L81.52 4.16Q81.83 3.96 82.07 3.98L82.07 3.98L82.07 3.98Q82.31 4.00 82.50 3.99L82.50 3.99L82.50 3.99Q82.57 3.99 82.63 3.99L82.63 3.99L82.63 3.99Q82.68 3.99 82.74 4.05L82.74 4.05L82.74 4.05Q82.74 4.20 82.73 4.54L82.73 4.54L82.73 4.54Q82.71 4.87 82.69 5.30L82.69 5.30L82.69 5.30Q82.67 5.73 82.65 6.18L82.65 6.18L82.65 6.18Q82.63 6.64 82.61 7.04L82.61 7.04L82.61 7.04Q82.60 7.45 82.61 7.74L82.61 7.74L82.61 7.74Q82.61 8.04 82.66 8.13L82.66 8.13L82.66 8.13Q82.81 8.08 83.00 7.98L83.00 7.98L83.00 7.98Q83.19 7.88 83.38 7.80L83.38 7.80L83.38 7.80Q83.58 7.71 83.78 7.64L83.78 7.64L83.78 7.64Q83.97 7.57 84.14 7.57L84.14 7.57L84.14 7.57Q84.98 7.55 85.53 7.86L85.53 7.86L85.53 7.86Q86.09 8.18 86.37 8.68L86.37 8.68L86.37 8.68Q86.65 9.18 86.67 9.81L86.67 9.81L86.67 9.81Q86.70 10.43 86.50 11.01L86.50 11.01L86.50 11.01Q86.30 11.59 85.88 12.05L85.88 12.05L85.88 12.05Q85.47 12.52 84.87 12.71L84.87 12.71L84.87 12.71Q84.57 12.81 84.22 12.82L84.22 12.82L84.22 12.82Q83.87 12.82 83.54 12.78L83.54 12.78L83.54 12.78Q83.22 12.74 82.95 12.66L82.95 12.66L82.95 12.66Q82.68 12.59 82.56 12.50ZM82.67 9.21L82.67 9.21L82.67 9.21Q82.61 9.49 82.59 9.71L82.59 9.71L82.59 9.71Q82.57 9.93 82.57 10.19L82.57 10.19L82.57 11.37L82.57 11.37Q82.57 11.62 82.89 11.70L82.89 11.70L82.89 11.70Q83.22 11.77 83.65 11.70L83.65 11.70L83.65 11.70Q84.08 11.63 84.52 11.42L84.52 11.42L84.52 11.42Q84.97 11.21 85.20 10.86L85.20 10.86L85.20 10.86Q85.36 10.65 85.44 10.42L85.44 10.42L85.44 10.42Q85.53 10.18 85.53 9.91L85.53 9.91L85.53 9.91Q85.53 9.41 85.32 9.13L85.32 9.13L85.32 9.13Q85.12 8.85 84.80 8.74L84.80 8.74L84.80 8.74Q84.49 8.64 84.10 8.69L84.10 8.69L84.10 8.69Q83.72 8.74 83.34 8.89L83.34 8.89L83.34 8.89Q83.20 8.96 82.99 9.03L82.99 9.03L82.99 9.03Q82.78 9.10 82.67 9.21ZM89.18 12.32L89.18 12.32L89.18 12.32Q89.14 12.17 89.05 12.01L89.05 12.01L89.05 12.01Q88.97 11.86 88.89 11.72L88.89 11.72L88.89 11.72Q88.77 11.54 88.61 11.19L88.61 11.19L88.61 11.19Q88.45 10.84 88.26 10.42L88.26 10.42L88.26 10.42Q88.07 10.00 87.89 9.53L87.89 9.53L87.89 9.53Q87.71 9.06 87.56 8.63L87.56 8.63L87.56 8.63Q87.40 8.20 87.30 7.85L87.30 7.85L87.30 7.85Q87.19 7.50 87.16 7.29L87.16 7.29L87.16 7.29Q87.23 7.29 87.42 7.25L87.42 7.25L87.42 7.25Q87.60 7.20 87.79 7.15L87.79 7.15L87.79 7.15Q87.99 7.10 88.15 7.06L88.15 7.06L88.15 7.06Q88.31 7.03 88.34 7.06L88.34 7.06L88.34 7.06Q88.37 7.07 88.41 7.21L88.41 7.21L88.41 7.21Q88.45 7.35 88.49 7.53L88.49 7.53L88.49 7.53Q88.54 7.70 88.57 7.85L88.57 7.85L88.57 7.85Q88.61 8.01 88.62 8.06L88.62 8.06L88.62 8.06Q88.80 8.78 89.12 9.60L89.12 9.60L89.12 9.60Q89.45 10.43 89.82 11.06L89.82 11.06L89.82 11.06Q90.30 10.02 90.69 8.97L90.69 8.97L90.69 8.97Q91.08 7.91 91.53 6.87L91.53 6.87L91.53 6.87Q91.64 6.82 91.83 6.78L91.83 6.78L91.83 6.78Q92.02 6.75 92.20 6.76L92.20 6.76L92.20 6.76Q92.39 6.78 92.53 6.85L92.53 6.85L92.53 6.85Q92.68 6.92 92.72 7.08L92.72 7.08L92.72 7.08Q92.53 7.71 92.24 8.29L92.24 8.29L92.24 8.29Q91.95 8.88 91.69 9.49L91.69 9.49L91.69 9.49Q91.18 10.70 90.69 11.92L90.69 11.92L90.69 11.92Q90.19 13.15 89.50 14.27L89.50 14.27L89.50 14.27Q89.42 14.42 89.26 14.69L89.26 14.69L89.26 14.69Q89.11 14.97 88.94 15.25L88.94 15.25L88.94 15.25Q88.77 15.54 88.61 15.78L88.61 15.78L88.61 15.78Q88.44 16.02 88.30 16.10L88.30 16.10L88.30 16.10Q88.02 16.10 87.87 15.95L87.87 15.95L87.87 15.95Q87.72 15.81 87.53 15.62L87.53 15.62L87.39 15.27L87.39 15.27Q87.74 14.97 87.97 14.58L87.97 14.58L87.97 14.58Q88.20 14.20 88.47 13.82L88.47 13.82L88.47 13.82Q88.54 13.72 88.65 13.52L88.65 13.52L88.65 13.52Q88.76 13.31 88.86 13.09L88.86 13.09L88.86 13.09Q88.97 12.87 89.05 12.66L89.05 12.66L89.05 12.66Q89.14 12.45 89.18 12.32ZM101.82 12.56L101.82 12.56L101.82 12.56Q101.72 12.57 101.63 12.58L101.63 12.58L101.63 12.58Q101.53 12.59 101.43 12.61L101.43 12.61L101.43 12.61Q101.23 12.68 101.07 12.66L101.07 12.66L101.07 12.66Q100.90 12.63 100.74 12.56L100.74 12.56L100.74 12.56Q100.76 12.05 100.77 11.68L100.77 11.68L100.77 11.68Q100.79 11.30 100.81 10.79L100.81 10.79L100.81 10.79Q100.83 10.50 100.82 10.19L100.82 10.19L100.82 10.19Q100.81 9.87 100.77 9.58L100.77 9.58L100.77 9.58Q100.66 8.89 100.33 8.67L100.33 8.67L100.33 8.67Q100.00 8.46 99.63 8.55L99.63 8.55L99.63 8.55Q99.26 8.64 98.94 8.95L98.94 8.95L98.94 8.95Q98.62 9.27 98.53 9.63L98.53 9.63L98.53 9.63Q98.36 10.35 98.35 11.07L98.35 11.07L98.35 11.07Q98.34 11.80 98.34 12.52L98.34 12.52L98.34 12.85L98.34 12.85Q98.22 12.85 98.06 12.87L98.06 12.87L98.06 12.87Q97.89 12.88 97.72 12.88L97.72 12.88L97.72 12.88Q97.55 12.88 97.41 12.83L97.41 12.83L97.41 12.83Q97.27 12.78 97.23 12.66L97.23 12.66L97.23 12.66Q97.23 12.57 97.24 12.01L97.24 12.01L97.24 12.01Q97.24 11.45 97.24 10.64L97.24 10.64L97.24 10.64Q97.24 9.83 97.25 8.87L97.25 8.87L97.25 8.87Q97.26 7.91 97.26 7.03L97.26 7.03L97.26 7.03Q97.26 6.27 97.24 5.65L97.24 5.65L97.24 5.65Q97.23 5.03 97.22 4.56L97.22 4.56L97.22 4.56Q97.22 4.10 97.22 3.84L97.22 3.84L97.22 3.84Q97.22 3.57 97.24 3.54L97.24 3.54L97.24 3.54Q97.26 3.51 97.33 3.50L97.33 3.50L97.33 3.50Q97.40 3.49 97.48 3.48L97.48 3.48L97.48 3.48Q97.57 3.47 97.64 3.47L97.64 3.47L97.64 3.47Q97.71 3.47 97.75 3.46L97.75 3.46L97.75 3.46Q97.82 3.40 97.99 3.46L97.99 3.46L97.99 3.46Q98.17 3.51 98.25 3.51L98.25 3.51L98.25 3.51Q98.27 3.58 98.28 3.94L98.28 3.94L98.28 3.94Q98.29 4.30 98.30 4.80L98.30 4.80L98.30 4.80Q98.31 5.31 98.31 5.89L98.31 5.89L98.31 5.89Q98.31 6.48 98.31 6.99L98.31 6.99L98.31 6.99Q98.32 7.50 98.32 7.87L98.32 7.87L98.32 7.87Q98.32 8.23 98.32 8.32L98.32 8.32L98.32 8.32Q98.67 7.91 99.16 7.61L99.16 7.61L99.16 7.61Q99.64 7.31 100.12 7.25L100.12 7.25L100.12 7.25Q100.60 7.20 101.04 7.43L101.04 7.43L101.04 7.43Q101.47 7.67 101.74 8.33L101.74 8.33L101.74 8.33Q102.00 8.99 102.03 9.72L102.03 9.72L102.03 9.72Q102.05 10.46 102.03 11.14L102.03 11.14L102.03 11.14Q102.03 11.30 102.03 11.49L102.03 11.49L102.03 11.49Q102.02 11.68 102.00 11.87L102.00 11.87L102.00 11.87Q101.98 12.07 101.93 12.25L101.93 12.25L101.93 12.25Q101.89 12.43 101.82 12.56ZM107.39 7.53L107.39 7.53L107.39 7.53Q107.65 7.90 107.74 8.41L107.74 8.41L107.74 8.41Q107.83 8.93 107.84 9.50L107.84 9.50L107.84 9.50Q107.86 10.07 107.82 10.62L107.82 10.62L107.82 10.62Q107.79 11.17 107.77 11.59L107.77 11.59L107.76 11.61L107.76 11.61Q107.76 11.90 107.74 12.28L107.74 12.28L107.74 12.28Q107.72 12.66 107.72 12.85L107.72 12.85L107.72 12.85Q107.52 12.87 107.34 12.90L107.34 12.90L107.34 12.90Q107.16 12.94 106.96 12.94L106.96 12.94L106.96 12.94Q106.89 12.80 106.76 12.71L106.76 12.71L106.76 12.71Q106.64 12.63 106.62 12.46L106.62 12.46L106.62 12.46Q106.54 12.49 106.48 12.51L106.48 12.51L106.48 12.51Q106.41 12.53 106.35 12.56L106.35 12.56L106.35 12.56Q106.29 12.59 106.19 12.61L106.19 12.61L106.19 12.61Q106.09 12.64 105.94 12.68L105.94 12.68L105.94 12.68Q105.74 12.73 105.55 12.77L105.55 12.77L105.55 12.77Q105.36 12.81 105.17 12.81L105.17 12.81L105.17 12.81Q105.14 12.81 105.14 12.82L105.14 12.82L105.14 12.82Q104.69 12.82 104.27 12.74L104.27 12.74L104.27 12.74Q103.84 12.66 103.47 12.33L103.47 12.33L103.47 12.33Q103.01 11.94 103.01 11.34L103.01 11.34L103.01 11.34Q103.01 11.30 103.01 11.30L103.01 11.30L103.01 11.10L103.01 11.10Q103.01 10.72 103.24 10.43L103.24 10.43L103.24 10.43Q103.46 10.14 103.79 9.93L103.79 9.93L103.79 9.93Q104.12 9.72 104.50 9.58L104.50 9.58L104.50 9.58Q104.87 9.45 105.20 9.39L105.20 9.39L105.20 9.39Q105.52 9.34 105.86 9.34L105.86 9.34L105.86 9.34Q106.20 9.34 106.53 9.28L106.53 9.28L106.53 9.28Q106.51 9.06 106.52 8.82L106.52 8.82L106.52 8.82Q106.53 8.58 106.46 8.36L106.46 8.36L106.46 8.36Q106.37 8.05 106.14 7.92L106.14 7.92L106.14 7.92Q105.91 7.78 105.62 7.78L105.62 7.78L105.62 7.78Q105.34 7.77 105.05 7.85L105.05 7.85L105.05 7.85Q104.76 7.94 104.55 8.08L104.55 8.08L104.55 8.08Q104.31 8.23 104.13 8.44L104.13 8.44L104.13 8.44Q103.95 8.64 103.78 8.85L103.78 8.85L103.78 8.85Q103.75 8.85 103.68 8.79L103.68 8.79L103.68 8.79Q103.60 8.72 103.51 8.64L103.51 8.64L103.51 8.64Q103.42 8.57 103.34 8.50L103.34 8.50L103.34 8.50Q103.26 8.43 103.24 8.43L103.24 8.43L103.24 8.43Q103.49 7.77 104.02 7.32L104.02 7.32L104.02 7.32Q104.55 6.87 105.16 6.72L105.16 6.72L105.16 6.72Q105.77 6.57 106.38 6.75L106.38 6.75L106.38 6.75Q106.99 6.93 107.39 7.53ZM106.61 10.23L106.61 10.23L106.61 10.23Q106.55 10.19 106.44 10.20L106.44 10.20L106.44 10.20Q106.33 10.21 106.26 10.18L106.26 10.18L106.26 10.18Q105.88 10.18 105.62 10.25L105.62 10.25L105.62 10.25Q105.35 10.32 104.99 10.44L104.99 10.44L104.99 10.44Q104.96 10.46 104.92 10.46L104.92 10.46L104.92 10.46Q104.87 10.47 104.85 10.50L104.85 10.50L104.85 10.50Q104.68 10.57 104.48 10.74L104.48 10.74L104.48 10.74Q104.29 10.91 104.26 11.10L104.26 11.10L104.26 11.10Q104.26 11.17 104.26 11.22L104.26 11.22L104.26 11.22Q104.26 11.27 104.29 11.34L104.29 11.34L104.29 11.34Q104.36 11.54 104.71 11.60L104.71 11.60L104.71 11.60Q105.07 11.66 105.48 11.63L105.48 11.63L105.48 11.63Q105.88 11.61 106.22 11.51L106.22 11.51L106.22 11.51Q106.55 11.41 106.57 11.30L106.57 11.30L106.57 11.30Q106.60 11.06 106.60 10.77L106.60 10.77L106.60 10.77Q106.61 10.47 106.61 10.23ZM113.16 7.92L113.16 7.92L113.16 7.92Q113.05 7.94 112.95 7.93L112.95 7.93L112.95 7.93Q112.85 7.92 112.76 7.92L112.76 7.92L112.76 7.92Q112.73 7.91 112.65 7.91L112.65 7.91L112.65 7.91Q112.57 7.91 112.55 7.92L112.55 7.92L112.55 7.92Q112.17 8.02 111.85 8.23L111.85 8.23L111.85 8.23Q111.52 8.44 111.27 8.71L111.27 8.71L111.27 8.71Q111.01 8.99 110.81 9.29L110.81 9.29L110.81 9.29Q110.61 9.59 110.49 9.86L110.49 9.86L110.49 9.86Q110.49 10.09 110.50 10.49L110.50 10.49L110.50 10.49Q110.50 10.88 110.50 11.29L110.50 11.29L110.50 11.29Q110.50 11.70 110.49 12.08L110.49 12.08L110.49 12.08Q110.47 12.45 110.43 12.66L110.43 12.66L110.43 12.66Q110.40 12.78 110.24 12.83L110.24 12.83L110.24 12.83Q110.08 12.88 109.89 12.89L109.89 12.89L109.89 12.89Q109.69 12.89 109.49 12.88L109.49 12.88L109.49 12.88Q109.30 12.87 109.20 12.85L109.20 12.85L109.20 12.85Q109.20 11.49 109.22 10.16L109.22 10.16L109.22 10.16Q109.24 8.82 109.24 7.46L109.24 7.46L109.24 7.46Q109.24 7.31 109.26 7.15L109.26 7.15L109.26 7.15Q109.27 6.99 109.28 6.82L109.28 6.82L109.28 6.82Q109.41 6.82 109.59 6.79L109.59 6.79L109.59 6.79Q109.77 6.76 109.89 6.79L109.89 6.79L109.89 6.79Q110.05 6.83 110.19 6.94L110.19 6.94L110.19 6.94Q110.32 7.04 110.45 7.28L110.45 7.28L110.45 7.28Q110.49 7.46 110.49 7.66L110.49 7.66L110.49 7.66Q110.49 7.85 110.50 8.04L110.50 8.04L110.52 8.04L110.52 8.04Q110.71 7.85 110.93 7.63L110.93 7.63L110.93 7.63Q111.15 7.41 111.45 7.23L111.45 7.23L111.45 7.23Q111.76 7.06 112.18 6.97L112.18 6.97L112.18 6.97Q112.60 6.89 113.20 6.99L113.20 6.99L113.20 6.99Q113.27 7.04 113.29 7.17L113.29 7.17L113.29 7.17Q113.30 7.31 113.28 7.46L113.28 7.46L113.28 7.46Q113.26 7.60 113.22 7.74L113.22 7.74L113.22 7.74Q113.19 7.87 113.16 7.92ZM114.51 7.17L114.51 7.17L114.51 7.17Q114.59 7.15 114.69 7.15L114.69 7.15L114.69 7.15Q114.80 7.14 114.88 7.11L114.88 7.11L114.88 7.11Q115.08 7.04 115.25 7.08L115.25 7.08L115.25 7.08Q115.43 7.11 115.58 7.18L115.58 7.18L115.58 7.18Q115.56 7.69 115.51 8.19L115.51 8.19L115.51 8.19Q115.47 8.69 115.43 9.18L115.43 9.18L115.43 9.18Q115.40 9.48 115.41 9.80L115.41 9.80L115.41 9.80Q115.42 10.12 115.46 10.42L115.46 10.42L115.46 10.42Q115.51 10.88 115.68 11.12L115.68 11.12L115.68 11.12Q115.85 11.37 116.08 11.45L116.08 11.45L116.08 11.45Q116.31 11.52 116.57 11.46L116.57 11.46L116.57 11.46Q116.83 11.40 117.06 11.24L117.06 11.24L117.06 11.24Q117.29 11.09 117.46 10.86L117.46 10.86L117.46 10.86Q117.63 10.64 117.70 10.39L117.70 10.39L117.70 10.39Q117.89 9.67 117.92 8.95L117.92 8.95L117.92 8.95Q117.95 8.23 117.98 7.52L117.98 7.52L117.98 7.18L117.98 7.18Q118.09 7.18 118.26 7.17L118.26 7.17L118.26 7.17Q118.43 7.15 118.59 7.16L118.59 7.16L118.59 7.16Q118.76 7.17 118.90 7.22L118.90 7.22L118.90 7.22Q119.04 7.27 119.08 7.39L119.08 7.39L119.08 7.39Q119.08 7.50 119.08 7.92L119.08 7.92L119.08 7.92Q119.07 8.33 119.06 8.89L119.06 8.89L119.06 8.89Q119.04 9.45 119.03 10.07L119.03 10.07L119.03 10.07Q119.01 10.70 118.99 11.23L118.99 11.23L118.99 11.23Q118.97 11.77 118.94 12.14L118.94 12.14L118.94 12.14Q118.90 12.50 118.86 12.54L118.86 12.54L118.86 12.54Q118.80 12.59 118.61 12.59L118.61 12.59L118.61 12.59Q118.43 12.60 118.34 12.61L118.34 12.61L118.34 12.61Q118.27 12.67 118.17 12.64L118.17 12.64L118.17 12.64Q118.06 12.61 117.98 12.61L117.98 12.61L117.98 12.61Q117.87 12.19 117.87 11.72L117.87 11.72L117.87 11.72Q117.49 12.12 117.00 12.41L117.00 12.41L117.00 12.41Q116.51 12.70 116.02 12.75L116.02 12.75L116.02 12.75Q115.54 12.81 115.11 12.56L115.11 12.56L115.11 12.56Q114.69 12.32 114.44 11.65L114.44 11.65L114.44 11.65Q114.18 10.98 114.19 10.26L114.19 10.26L114.19 10.26Q114.20 9.53 114.23 8.82L114.23 8.82L114.23 8.82Q114.23 8.68 114.25 8.45L114.25 8.45L114.25 8.45Q114.27 8.22 114.30 7.98L114.30 7.98L114.30 7.98Q114.32 7.74 114.38 7.52L114.38 7.52L114.38 7.52Q114.44 7.29 114.51 7.17ZM124.98 12.66L124.98 12.66L124.98 12.66Q124.88 12.67 124.78 12.68L124.78 12.68L124.78 12.68Q124.68 12.70 124.60 12.73L124.60 12.73L124.60 12.73Q124.22 12.84 123.90 12.66L123.90 12.66L123.90 12.66Q123.93 11.66 123.98 10.65L123.98 10.65L123.98 10.65Q124.00 10.36 123.98 10.04L123.98 10.04L123.98 10.04Q123.97 9.73 123.93 9.44L123.93 9.44L123.93 9.44Q123.82 8.75 123.49 8.53L123.49 8.53L123.49 8.53Q123.16 8.32 122.79 8.41L122.79 8.41L122.79 8.41Q122.42 8.50 122.10 8.81L122.10 8.81L122.10 8.81Q121.79 9.13 121.70 9.49L121.70 9.49L121.70 9.49Q121.53 10.21 121.51 10.93L121.51 10.93L121.51 10.93Q121.49 11.66 121.49 12.38L121.49 12.38L121.49 12.71L121.49 12.71Q121.38 12.71 121.21 12.73L121.21 12.73L121.21 12.73Q121.04 12.74 120.88 12.74L120.88 12.74L120.88 12.74Q120.71 12.74 120.58 12.69L120.58 12.69L120.58 12.69Q120.44 12.64 120.39 12.52L120.39 12.52L120.39 12.52Q120.39 12.40 120.39 11.99L120.39 11.99L120.39 11.99Q120.39 11.58 120.38 11.02L120.38 11.02L120.38 11.02Q120.37 10.46 120.37 9.84L120.37 9.84L120.37 9.84Q120.37 9.21 120.38 8.67L120.38 8.67L120.38 8.67Q120.39 8.13 120.41 7.77L120.41 7.77L120.41 7.77Q120.43 7.41 120.47 7.36L120.47 7.36L120.47 7.36Q120.48 7.34 120.55 7.32L120.55 7.32L120.55 7.32Q120.62 7.31 120.71 7.30L120.71 7.30L120.71 7.30Q120.79 7.29 120.86 7.29L120.86 7.29L120.86 7.29Q120.93 7.29 120.97 7.28L120.97 7.28L120.97 7.28Q121.04 7.22 121.16 7.25L121.16 7.25L121.16 7.25Q121.27 7.28 121.34 7.28L121.34 7.28L121.34 7.28Q121.41 7.48 121.44 7.71L121.44 7.71L121.44 7.71Q121.48 7.94 121.48 8.18L121.48 8.18L121.48 8.18Q121.84 7.77 122.33 7.47L122.33 7.47L122.33 7.47Q122.81 7.17 123.29 7.11L123.29 7.11L123.29 7.11Q123.77 7.04 124.21 7.28L124.21 7.28L124.21 7.28Q124.64 7.52 124.91 8.19L124.91 8.19L124.91 8.19Q125.17 8.85 125.19 9.58L125.19 9.58L125.19 9.58Q125.22 10.30 125.20 11.00L125.20 11.00L125.20 11.00Q125.20 11.14 125.19 11.38L125.19 11.38L125.19 11.38Q125.19 11.61 125.16 11.84L125.16 11.84L125.16 11.84Q125.13 12.08 125.09 12.31L125.09 12.31L125.09 12.31Q125.05 12.53 124.98 12.66ZM134.08 12.54L134.08 12.54L134.08 12.54Q133.20 13.01 132.45 13.02L132.45 13.02L132.45 13.02Q131.70 13.03 131.16 12.74L131.16 12.74L131.16 12.74Q130.62 12.45 130.31 11.91L130.31 11.91L130.31 11.91Q130.00 11.38 129.97 10.75L129.97 10.75L129.97 10.75Q129.93 10.11 130.22 9.44L130.22 9.44L130.22 9.44Q130.51 8.76 131.15 8.19L131.15 8.19L131.15 8.19Q132.22 7.25 133.66 7.21L133.66 7.21L133.66 7.21Q133.94 7.20 134.21 7.23L134.21 7.23L134.21 7.23Q134.48 7.27 134.74 7.39L134.74 7.39L134.74 7.39Q134.82 7.52 134.83 7.63L134.83 7.63L134.83 7.63Q134.85 7.74 134.83 7.85L134.83 7.85L134.83 7.85Q134.82 7.97 134.78 8.09L134.78 8.09L134.78 8.09Q134.74 8.22 134.72 8.36L134.72 8.36L134.72 8.36Q134.68 8.53 134.58 8.56L134.58 8.56L134.58 8.56Q134.48 8.60 134.36 8.57L134.36 8.57L134.36 8.57Q134.23 8.55 134.10 8.51L134.10 8.51L134.10 8.51Q133.97 8.47 133.85 8.50L133.85 8.50L133.85 8.50Q133.74 8.46 133.52 8.48L133.52 8.48L133.52 8.48Q133.29 8.51 133.18 8.46L133.18 8.46L133.18 8.46Q132.65 8.53 132.24 8.80L132.24 8.80L132.24 8.80Q131.84 9.07 131.59 9.44L131.59 9.44L131.59 9.44Q131.33 9.81 131.25 10.23L131.25 10.23L131.25 10.23Q131.17 10.65 131.28 11.00L131.28 11.00L131.28 11.00Q131.39 11.35 131.72 11.59L131.72 11.59L131.72 11.59Q132.05 11.82 132.61 11.82L132.61 11.82L132.61 11.82Q133.27 11.82 133.83 11.47L133.83 11.47L133.83 11.47Q134.39 11.13 134.85 10.71L134.85 10.71L134.85 10.71Q135.04 10.79 135.16 10.94L135.16 10.94L135.16 10.94Q135.28 11.09 135.31 11.45L135.31 11.45L135.31 11.45Q135.27 11.61 135.12 11.77L135.12 11.77L135.12 11.77Q134.97 11.94 134.79 12.09L134.79 12.09L134.79 12.09Q134.61 12.24 134.41 12.36L134.41 12.36L134.41 12.36Q134.22 12.47 134.08 12.54ZM137.42 4.93L137.42 4.93L137.42 4.93Q137.69 5.07 137.78 5.31L137.78 5.31L137.78 5.31Q137.87 5.54 137.82 5.79L137.82 5.79L137.82 5.79Q137.76 6.03 137.58 6.22L137.58 6.22L137.58 6.22Q137.41 6.41 137.14 6.45L137.14 6.45L137.14 6.45Q136.77 6.51 136.53 6.32L136.53 6.32L136.53 6.32Q136.30 6.13 136.25 5.86L136.25 5.86L136.25 5.86Q136.21 5.59 136.34 5.30L136.34 5.30L136.34 5.30Q136.47 5.01 136.84 4.86L136.84 4.86L136.84 4.86Q137.03 4.77 137.17 4.82L137.17 4.82L137.17 4.82Q137.31 4.87 137.42 4.93ZM136.47 8.22L136.47 8.22L136.47 8.22Q136.47 8.09 136.49 7.88L136.49 7.88L136.49 7.88Q136.50 7.66 136.51 7.57L136.51 7.57L136.51 7.57Q136.60 7.57 136.81 7.55L136.81 7.55L136.81 7.55Q137.03 7.52 137.12 7.55L137.12 7.55L137.12 7.55Q137.26 7.56 137.40 7.60L137.40 7.60L137.40 7.60Q137.54 7.64 137.65 7.66L137.65 7.66L137.65 7.66Q137.68 7.78 137.69 8.16L137.69 8.16L137.69 8.16Q137.70 8.53 137.70 9.02L137.70 9.02L137.70 9.02Q137.70 9.51 137.70 10.06L137.70 10.06L137.70 10.06Q137.69 10.61 137.68 11.11L137.68 11.11L137.68 11.11Q137.66 11.61 137.65 11.98L137.65 11.98L137.65 11.98Q137.63 12.35 137.62 12.47L137.62 12.47L137.62 12.47Q137.61 12.60 137.43 12.65L137.43 12.65L137.43 12.65Q137.26 12.70 137.05 12.71L137.05 12.71L137.05 12.71Q136.84 12.71 136.64 12.69L136.64 12.69L136.64 12.69Q136.44 12.67 136.39 12.67L136.39 12.67L136.39 12.67Q136.39 12.54 136.39 12.20L136.39 12.20L136.39 12.20Q136.40 11.86 136.42 11.40L136.42 11.40L136.42 11.40Q136.43 10.93 136.44 10.42L136.44 10.42L136.44 10.42Q136.44 9.91 136.46 9.46L136.46 9.46L136.46 9.46Q136.47 9.00 136.47 8.67L136.47 8.67L136.47 8.67Q136.47 8.33 136.47 8.22ZM143.40 8.09L143.40 8.09L143.40 8.09Q143.77 7.67 144.22 7.37L144.22 7.37L144.22 7.37Q144.68 7.07 145.13 7.01L145.13 7.01L145.13 7.01Q145.59 6.94 146.00 7.18L146.00 7.18L146.00 7.18Q146.41 7.42 146.68 8.09L146.68 8.09L146.68 8.09Q146.94 8.75 146.96 9.48L146.96 9.48L146.96 9.48Q146.99 10.21 146.97 10.91L146.97 10.91L146.97 10.91Q146.97 11.05 146.96 11.29L146.96 11.29L146.96 11.29Q146.94 11.54 146.92 11.79L146.92 11.79L146.92 11.79Q146.89 12.05 146.84 12.29L146.84 12.29L146.84 12.29Q146.79 12.53 146.72 12.66L146.72 12.66L146.72 12.66Q146.62 12.67 146.54 12.68L146.54 12.68L146.54 12.68Q146.45 12.68 146.37 12.71L146.37 12.71L146.37 12.71Q146.17 12.78 146.00 12.71L146.00 12.71L146.00 12.71Q145.82 12.63 145.67 12.56L145.67 12.56L145.67 12.56Q145.68 11.58 145.75 10.56L145.75 10.56L145.75 10.56Q145.77 10.26 145.75 9.94L145.75 9.94L145.75 9.94Q145.74 9.62 145.70 9.32L145.70 9.32L145.70 9.32Q145.59 8.64 145.26 8.46L145.26 8.46L145.26 8.46Q144.94 8.27 144.60 8.51L144.60 8.51L144.60 8.51Q144.26 8.75 143.98 9.37L143.98 9.37L143.98 9.37Q143.71 9.98 143.70 10.91L143.70 10.91L143.70 10.91Q143.70 11.05 143.69 11.28L143.69 11.28L143.69 11.28Q143.68 11.51 143.65 11.75L143.65 11.75L143.65 11.75Q143.63 11.98 143.58 12.21L143.58 12.21L143.58 12.21Q143.54 12.43 143.47 12.56L143.47 12.56L143.47 12.56Q143.37 12.57 143.28 12.58L143.28 12.58L143.28 12.58Q143.18 12.59 143.08 12.61L143.08 12.61L143.08 12.61Q142.88 12.68 142.72 12.66L142.72 12.66L142.72 12.66Q142.55 12.63 142.39 12.56L142.39 12.56L142.39 12.56Q142.41 11.58 142.48 10.56L142.48 10.56L142.48 10.56Q142.49 10.26 142.48 9.94L142.48 9.94L142.48 9.94Q142.46 9.62 142.42 9.32L142.42 9.32L142.42 9.32Q142.35 8.86 142.20 8.62L142.20 8.62L142.20 8.62Q142.04 8.39 141.84 8.31L141.84 8.31L141.84 8.31Q141.64 8.23 141.42 8.30L141.42 8.30L141.42 8.30Q141.20 8.37 141.01 8.53L141.01 8.53L141.01 8.53Q140.81 8.69 140.66 8.92L140.66 8.92L140.66 8.92Q140.52 9.14 140.46 9.39L140.46 9.39L140.46 9.39Q140.31 10.11 140.29 10.83L140.29 10.83L140.29 10.83Q140.27 11.55 140.27 12.26L140.27 12.26L140.27 12.60L140.27 12.60Q140.15 12.60 139.99 12.62L139.99 12.62L139.99 12.62Q139.82 12.64 139.65 12.63L139.65 12.63L139.65 12.63Q139.48 12.63 139.34 12.59L139.34 12.59L139.34 12.59Q139.20 12.54 139.16 12.42L139.16 12.42L139.16 12.42Q139.16 12.31 139.15 11.88L139.15 11.88L139.15 11.88Q139.15 11.45 139.15 10.87L139.15 10.87L139.15 10.87Q139.15 10.29 139.14 9.63L139.14 9.63L139.14 9.63Q139.13 8.97 139.15 8.42L139.15 8.42L139.15 8.42Q139.16 7.87 139.18 7.48L139.18 7.48L139.18 7.48Q139.20 7.10 139.24 7.06L139.24 7.06L139.24 7.06Q139.29 7 139.47 7L139.47 7L139.47 7Q139.66 7 139.75 6.97L139.75 6.97L139.75 6.97Q139.82 6.92 139.92 6.94L139.92 6.94L139.92 6.94Q140.03 6.97 140.11 6.97L140.11 6.97L140.11 6.97Q140.17 7.17 140.20 7.50L140.20 7.50L140.20 7.50Q140.24 7.83 140.25 8.08L140.25 8.08L140.25 8.08Q140.60 7.67 141.04 7.37L141.04 7.37L141.04 7.37Q141.48 7.07 141.91 7.01L141.91 7.01L141.91 7.01Q142.34 6.94 142.73 7.18L142.73 7.18L142.73 7.18Q143.12 7.42 143.40 8.08L143.40 8.08L143.40 8.09ZM153.22 12.19L153.22 12.19L153.22 12.19Q153.16 12.25 153.05 12.35L153.05 12.35L153.05 12.35Q152.94 12.45 152.87 12.49L152.87 12.49L152.87 12.49Q152.08 12.96 151.21 13.08L151.21 13.08L151.21 13.08Q150.35 13.20 149.60 12.93L149.60 12.93L149.60 12.93Q148.86 12.66 148.38 11.97L148.38 11.97L148.38 11.97Q147.90 11.28 147.90 10.15L147.90 10.15L147.90 10.15Q147.90 9.53 148.11 8.99L148.11 8.99L148.11 8.99Q148.32 8.44 148.69 7.97L148.69 7.97L148.69 7.97Q149.07 7.49 149.64 7.17L149.64 7.17L149.64 7.17Q150.21 6.86 150.81 6.80L150.81 6.80L150.81 6.80Q151.41 6.73 151.96 6.95L151.96 6.95L151.96 6.95Q152.52 7.17 152.88 7.74L152.88 7.74L152.88 7.74Q153.02 7.97 153.10 8.23L153.10 8.23L153.10 8.23Q153.19 8.48 153.20 8.75L153.20 8.75L153.20 8.75Q153.22 8.89 153.23 9.06L153.23 9.06L153.23 9.06Q153.24 9.23 153.22 9.37L153.22 9.37L153.22 9.37Q153.15 9.67 153.05 9.94L153.05 9.94L153.05 9.94Q153.01 10.05 152.80 10.13L152.80 10.13L152.80 10.13Q152.59 10.21 152.33 10.25L152.33 10.25L152.33 10.25Q152.08 10.29 151.84 10.31L151.84 10.31L151.84 10.31Q151.61 10.33 151.51 10.35L151.51 10.35L151.51 10.35Q150.95 10.40 150.39 10.42L150.39 10.42L150.39 10.42Q149.84 10.44 149.28 10.46L149.28 10.46L149.20 10.51L149.20 10.51Q149.16 10.67 149.20 10.82L149.20 10.82L149.20 10.82Q149.24 11.19 149.46 11.41L149.46 11.41L149.46 11.41Q149.69 11.63 149.98 11.76L149.98 11.76L149.98 11.76Q150.28 11.89 150.61 11.94L150.61 11.94L150.61 11.94Q150.95 11.98 151.23 11.98L151.23 11.98L151.23 11.98Q151.45 11.96 151.63 11.91L151.63 11.91L151.63 11.91Q151.80 11.87 151.98 11.77L151.98 11.77L151.98 11.77Q152.17 11.66 152.38 11.47L152.38 11.47L152.38 11.47Q152.60 11.28 152.91 10.96L152.91 10.96L152.91 10.96Q152.94 10.95 153.03 11.07L153.03 11.07L153.03 11.07Q153.13 11.20 153.24 11.36L153.24 11.36L153.24 11.36Q153.34 11.52 153.43 11.67L153.43 11.67L153.43 11.67Q153.52 11.82 153.54 11.84L153.54 11.84L153.54 11.84Q153.51 11.93 153.40 12.03L153.40 12.03L153.40 12.03Q153.29 12.14 153.22 12.19ZM152.12 9.37L152.12 9.37L152.12 9.37Q152.18 9.32 152.20 9.25L152.20 9.25L152.20 9.25Q152.22 9.18 152.22 9.11L152.22 9.11L152.22 9.11Q152.25 8.93 152.19 8.69L152.19 8.69L152.19 8.69Q152.14 8.44 152.04 8.29L152.04 8.29L152.04 8.29Q151.77 7.84 151.33 7.76L151.33 7.76L151.33 7.76Q150.88 7.67 150.42 7.86L150.42 7.86L150.42 7.86Q149.97 8.05 149.62 8.46L149.62 8.46L149.62 8.46Q149.27 8.86 149.21 9.41L149.21 9.41L149.21 9.41Q149.28 9.49 149.39 9.52L149.39 9.52L149.39 9.52Q149.42 9.53 149.62 9.53L149.62 9.53L149.62 9.53Q149.81 9.52 150.10 9.51L150.10 9.51L150.10 9.51Q150.39 9.49 150.72 9.47L150.72 9.47L150.72 9.47Q151.06 9.45 151.35 9.44L151.35 9.44L151.35 9.44Q151.65 9.42 151.86 9.40L151.86 9.40L151.86 9.40Q152.08 9.38 152.12 9.37ZM159.46 12.66L159.46 12.66L159.46 12.66Q159.36 12.67 159.26 12.68L159.26 12.68L159.26 12.68Q159.17 12.70 159.08 12.73L159.08 12.73L159.08 12.73Q158.70 12.84 158.38 12.66L158.38 12.66L158.38 12.66Q158.41 11.66 158.47 10.65L158.47 10.65L158.47 10.65Q158.48 10.36 158.47 10.04L158.47 10.04L158.47 10.04Q158.45 9.73 158.41 9.44L158.41 9.44L158.41 9.44Q158.30 8.75 157.97 8.53L157.97 8.53L157.97 8.53Q157.64 8.32 157.27 8.41L157.27 8.41L157.27 8.41Q156.90 8.50 156.58 8.81L156.58 8.81L156.58 8.81Q156.27 9.13 156.18 9.49L156.18 9.49L156.18 9.49Q156.02 10.21 156.00 10.93L156.00 10.93L156.00 10.93Q155.97 11.66 155.97 12.38L155.97 12.38L155.97 12.71L155.97 12.71Q155.86 12.71 155.69 12.73L155.69 12.73L155.69 12.73Q155.53 12.74 155.36 12.74L155.36 12.74L155.36 12.74Q155.19 12.74 155.06 12.69L155.06 12.69L155.06 12.69Q154.92 12.64 154.87 12.52L154.87 12.52L154.87 12.52Q154.87 12.40 154.87 11.99L154.87 11.99L154.87 11.99Q154.87 11.58 154.86 11.02L154.86 11.02L154.86 11.02Q154.85 10.46 154.85 9.84L154.85 9.84L154.85 9.84Q154.85 9.21 154.86 8.67L154.86 8.67L154.86 8.67Q154.87 8.13 154.89 7.77L154.89 7.77L154.89 7.77Q154.91 7.41 154.95 7.36L154.95 7.36L154.95 7.36Q154.97 7.34 155.04 7.32L155.04 7.32L155.04 7.32Q155.11 7.31 155.19 7.30L155.19 7.30L155.19 7.30Q155.27 7.29 155.34 7.29L155.34 7.29L155.34 7.29Q155.41 7.29 155.46 7.28L155.46 7.28L155.46 7.28Q155.53 7.22 155.64 7.25L155.64 7.25L155.64 7.25Q155.75 7.28 155.82 7.28L155.82 7.28L155.82 7.28Q155.89 7.48 155.93 7.71L155.93 7.71L155.93 7.71Q155.96 7.94 155.96 8.18L155.96 8.18L155.96 8.18Q156.32 7.77 156.81 7.47L156.81 7.47L156.81 7.47Q157.29 7.17 157.77 7.11L157.77 7.11L157.77 7.11Q158.26 7.04 158.69 7.28L158.69 7.28L158.69 7.28Q159.12 7.52 159.39 8.19L159.39 8.19L159.39 8.19Q159.66 8.85 159.68 9.58L159.68 9.58L159.68 9.58Q159.70 10.30 159.68 11.00L159.68 11.00L159.68 11.00Q159.68 11.14 159.68 11.38L159.68 11.38L159.68 11.38Q159.67 11.61 159.64 11.84L159.64 11.84L159.64 11.84Q159.61 12.08 159.57 12.31L159.57 12.31L159.57 12.31Q159.53 12.53 159.46 12.66ZM164.05 7.17L164.05 7.17L164.05 7.17Q164.11 7.17 164.16 7.29L164.16 7.29L164.16 7.29Q164.21 7.41 164.21 7.56L164.21 7.56L164.21 7.56Q164.22 7.71 164.19 7.86L164.19 7.86L164.19 7.86Q164.15 8.01 164.05 8.06L164.05 8.06L164.05 8.06Q163.73 8.15 163.43 8.29L163.43 8.29L163.43 8.29Q163.13 8.43 163.02 8.68L163.02 8.68L163.02 8.68Q162.99 8.75 163.00 9.11L163.00 9.11L163.00 9.11Q163.00 9.46 163.02 9.90L163.02 9.90L163.02 9.90Q163.03 10.33 163.05 10.72L163.05 10.72L163.05 10.72Q163.07 11.10 163.07 11.23L163.07 11.23L163.07 11.23Q163.10 11.73 163.05 12.14L163.05 12.14L163.05 12.14Q163.00 12.54 162.81 12.85L162.81 12.85L162.81 12.85Q162.62 13.16 162.28 13.38L162.28 13.38L162.28 13.38Q161.94 13.61 161.38 13.75L161.38 13.75L161.38 13.75Q161.13 13.73 161.01 13.48L161.01 13.48L161.01 13.48Q160.89 13.23 160.90 12.94L160.90 12.94L160.90 12.94Q161.04 12.91 161.22 12.87L161.22 12.87L161.22 12.87Q161.39 12.82 161.55 12.75L161.55 12.75L161.55 12.75Q161.71 12.68 161.84 12.58L161.84 12.58L161.84 12.58Q161.97 12.47 162.02 12.32L162.02 12.32L162.02 12.32Q162.04 12.26 162.05 12.05L162.05 12.05L162.05 12.05Q162.06 11.84 162.06 11.56L162.06 11.56L162.06 11.56Q162.06 11.27 162.06 10.93L162.06 10.93L162.06 10.93Q162.06 10.60 162.06 10.31L162.06 10.31L162.06 10.31Q162.06 10.02 162.06 9.80L162.06 9.80L162.06 9.80Q162.05 9.58 162.05 9.52L162.05 9.52L162.05 9.52Q162.02 9.20 162.02 8.92L162.02 8.92L162.02 8.92Q162.02 8.64 162.08 8.40L162.08 8.40L162.08 8.40Q162.15 8.16 162.29 7.97L162.29 7.97L162.29 7.97Q162.44 7.77 162.69 7.62L162.69 7.62L162.69 7.62Q162.44 7.46 162.29 7.27L162.29 7.27L162.29 7.27Q162.15 7.07 162.08 6.83L162.08 6.83L162.08 6.83Q162.02 6.59 162.02 6.31L162.02 6.31L162.02 6.31Q162.02 6.03 162.05 5.71L162.05 5.71L162.05 5.71Q162.05 5.66 162.06 5.43L162.06 5.43L162.06 5.43Q162.06 5.21 162.06 4.92L162.06 4.92L162.06 4.92Q162.06 4.63 162.06 4.30L162.06 4.30L162.06 4.30Q162.06 3.96 162.06 3.68L162.06 3.68L162.06 3.68Q162.06 3.39 162.05 3.18L162.05 3.18L162.05 3.18Q162.04 2.97 162.02 2.91L162.02 2.91L162.02 2.91Q161.97 2.76 161.84 2.65L161.84 2.65L161.84 2.65Q161.71 2.55 161.55 2.48L161.55 2.48L161.55 2.48Q161.39 2.41 161.22 2.37L161.22 2.37L161.22 2.37Q161.04 2.32 160.90 2.30L160.90 2.30L160.90 2.30Q160.89 2.00 161.01 1.75L161.01 1.75L161.01 1.75Q161.13 1.50 161.38 1.48L161.38 1.48L161.38 1.48Q161.94 1.64 162.28 1.86L162.28 1.86L162.28 1.86Q162.62 2.07 162.81 2.38L162.81 2.38L162.81 2.38Q163.00 2.69 163.05 3.09L163.05 3.09L163.05 3.09Q163.10 3.50 163.07 4.00L163.07 4.00L163.07 4.00Q163.07 4.13 163.05 4.52L163.05 4.52L163.05 4.52Q163.03 4.91 163.02 5.34L163.02 5.34L163.02 5.34Q163.00 5.77 163.00 6.13L163.00 6.13L163.00 6.13Q162.99 6.48 163.02 6.55L163.02 6.55L163.02 6.55Q163.13 6.80 163.43 6.94L163.43 6.94L163.43 6.94Q163.73 7.08 164.05 7.17ZM169.64 11.26L169.64 11.26L169.64 11.26Q169.61 11.48 169.59 11.84L169.59 11.84L169.59 11.84Q169.57 12.19 169.54 12.67L169.54 12.67L169.54 12.67Q169.47 12.70 169.34 12.68L169.34 12.68L169.34 12.68Q169.20 12.67 169.13 12.64L169.13 12.64L169.13 12.64Q168.98 12.70 168.90 12.66L168.90 12.66L168.90 12.66Q168.81 12.61 168.64 12.59L168.64 12.59L168.64 12.59Q168.63 12.50 168.62 12.35L168.62 12.35L168.62 12.35Q168.62 12.19 168.60 12.03L168.60 12.03L168.60 12.03Q168.59 11.87 168.58 11.72L168.58 11.72L168.58 11.72Q168.57 11.56 168.57 11.47L168.57 11.47L168.11 11.47L168.11 11.47Q167.62 11.44 167.19 11.23L167.19 11.23L167.19 11.23Q166.75 11.03 166.35 10.74L166.35 10.74L166.35 10.74Q166.39 10.58 166.42 10.38L166.42 10.38L166.42 10.38Q166.45 10.18 166.49 9.97L166.49 9.97L166.49 9.97Q166.53 9.77 166.59 9.58L166.59 9.58L166.59 9.58Q166.66 9.38 166.77 9.24L166.77 9.24L166.98 9.45L166.98 9.45Q167.08 9.58 167.23 9.71L167.23 9.71L167.23 9.71Q167.38 9.84 167.56 9.95L167.56 9.95L167.56 9.95Q167.73 10.07 167.91 10.14L167.91 10.14L167.91 10.14Q168.08 10.21 168.22 10.21L168.22 10.21L168.22 10.21Q169.09 10.23 169.60 9.95L169.60 9.95L169.60 9.95Q170.11 9.66 170.10 9.20L170.10 9.20L170.10 9.20Q170.09 9.00 169.92 8.87L169.92 8.87L169.92 8.87Q169.76 8.74 169.65 8.67L169.65 8.67L169.65 8.67Q169.40 8.53 169.09 8.44L169.09 8.44L169.09 8.44Q168.78 8.34 168.48 8.26L168.48 8.26L168.48 8.26Q168.17 8.18 167.87 8.06L167.87 8.06L167.87 8.06Q167.57 7.94 167.34 7.73L167.34 7.73L167.34 7.73Q167.12 7.52 166.98 7.19L166.98 7.19L166.98 7.19Q166.84 6.86 166.84 6.36L166.84 6.36L166.84 6.36Q166.84 5.91 167.01 5.54L167.01 5.54L167.01 5.54Q167.17 5.17 167.46 4.87L167.46 4.87L167.46 4.87Q167.75 4.58 168.11 4.36L168.11 4.36L168.11 4.36Q168.48 4.14 168.88 4.02L168.88 4.02L168.88 4.02Q168.87 3.88 168.87 3.68L168.87 3.68L168.87 3.68Q168.87 3.49 168.88 3.29L168.88 3.29L168.88 3.29Q168.90 3.09 168.92 2.92L168.92 2.92L168.92 2.92Q168.95 2.74 169.01 2.62L169.01 2.62L169.01 2.62Q169.29 2.59 169.50 2.59L169.50 2.59L169.50 2.59Q169.72 2.59 169.93 2.70L169.93 2.70L169.99 3.05L169.97 3.07L169.97 3.07Q169.97 3.23 169.97 3.49L169.97 3.49L169.97 3.49Q169.96 3.74 169.95 3.84L169.95 3.84L169.95 3.84Q170.45 3.81 170.83 3.95L170.83 3.95L170.83 3.95Q170.91 3.98 171.04 4.03L171.04 4.03L171.04 4.03Q171.16 4.07 171.23 4.13L171.23 4.13L171.23 4.13Q171.29 4.31 171.22 4.45L171.22 4.45L171.22 4.45Q171.15 4.58 171.12 4.76L171.12 4.76L171.12 4.76Q171.09 4.79 171.08 4.88L171.08 4.88L171.08 4.88Q171.07 4.97 171.05 5.07L171.05 5.07L171.05 5.07Q171.04 5.17 171.03 5.25L171.03 5.25L171.03 5.25Q171.02 5.33 171.00 5.33L171.00 5.33L171.00 5.33Q170.86 5.36 170.70 5.31L170.70 5.31L170.70 5.31Q170.55 5.26 170.41 5.25L170.41 5.25L170.41 5.25Q170.10 5.22 169.74 5.23L169.74 5.23L169.74 5.23Q169.39 5.24 169.05 5.34L169.05 5.34L169.05 5.34Q168.71 5.45 168.44 5.67L168.44 5.67L168.44 5.67Q168.17 5.89 168.04 6.29L168.04 6.29L168.03 6.33L168.03 6.33Q168.04 6.50 168.13 6.64L168.13 6.64L168.13 6.64Q168.22 6.79 168.35 6.90L168.35 6.90L168.35 6.90Q168.48 7 168.62 7.07L168.62 7.07L168.62 7.07Q168.77 7.14 168.90 7.15L168.90 7.15L168.90 7.15Q169.20 7.20 169.53 7.28L169.53 7.28L169.53 7.28Q169.85 7.36 170.13 7.47L170.13 7.47L170.13 7.47Q170.41 7.57 170.64 7.69L170.64 7.69L170.64 7.69Q170.87 7.80 171.00 7.92L171.00 7.92L171.00 7.92Q171.22 8.13 171.27 8.33L171.27 8.33L171.27 8.33Q171.32 8.53 171.37 8.85L171.37 8.85L171.37 8.85Q171.46 9.35 171.34 9.75L171.34 9.75L171.34 9.75Q171.22 10.15 170.97 10.44L170.97 10.44L170.97 10.44Q170.72 10.74 170.37 10.93L170.37 10.93L170.37 10.93Q170.02 11.13 169.64 11.26ZM240.11 8.15L240.11 8.15L240.11 8.15Q240.02 8.18 239.56 8.20L239.56 8.20L239.56 8.20Q239.11 8.22 238.48 8.23L238.48 8.23L238.48 8.23Q237.85 8.23 237.12 8.24L237.12 8.24L237.12 8.24Q236.39 8.25 235.75 8.25L235.75 8.25L235.75 8.25Q235.10 8.25 234.62 8.25L234.62 8.25L234.62 8.25Q234.14 8.25 233.98 8.25L233.98 8.25L233.98 8.25Q233.83 8.09 233.81 7.85L233.81 7.85L233.81 7.85Q233.79 7.60 233.81 7.24L233.81 7.24L233.81 7.24Q233.87 7.14 234.14 7.10L234.14 7.10L234.14 7.10Q234.40 7.06 234.72 7.04L234.72 7.04L234.72 7.04Q235.05 7.03 235.34 7.03L235.34 7.03L235.34 7.03Q235.63 7.03 235.76 7.03L235.76 7.03L235.76 7.03Q235.91 7.03 236.25 7.02L236.25 7.02L236.25 7.02Q236.59 7.01 237.01 7.01L237.01 7.01L237.01 7.01Q237.44 7.01 237.91 7.01L237.91 7.01L237.91 7.01Q238.38 7.01 238.80 7.02L238.80 7.02L238.80 7.02Q239.22 7.03 239.55 7.05L239.55 7.05L239.55 7.05Q239.89 7.07 240.04 7.08L240.04 7.08L240.04 7.08Q240.10 7.14 240.13 7.31L240.13 7.31L240.13 7.31Q240.16 7.48 240.16 7.66L240.16 7.66L240.16 7.66Q240.16 7.84 240.14 7.99L240.14 7.99L240.14 7.99Q240.13 8.13 240.11 8.15ZM240.11 10.39L240.11 10.39L240.11 10.39Q240.02 10.42 239.56 10.44L239.56 10.44L239.56 10.44Q239.11 10.46 238.48 10.46L238.48 10.46L238.48 10.46Q237.85 10.47 237.12 10.48L237.12 10.48L237.12 10.48Q236.39 10.49 235.75 10.49L235.75 10.49L235.75 10.49Q235.10 10.49 234.62 10.49L234.62 10.49L234.62 10.49Q234.14 10.49 233.98 10.49L233.98 10.49L233.98 10.49Q233.83 10.33 233.81 10.09L233.81 10.09L233.81 10.09Q233.79 9.84 233.81 9.48L233.81 9.48L233.81 9.48Q233.87 9.38 234.14 9.34L234.14 9.34L234.14 9.34Q234.40 9.30 234.72 9.28L234.72 9.28L234.72 9.28Q235.05 9.27 235.34 9.27L235.34 9.27L235.34 9.27Q235.63 9.27 235.76 9.27L235.76 9.27L235.76 9.27Q235.91 9.27 236.25 9.26L236.25 9.26L236.25 9.26Q236.59 9.25 237.01 9.25L237.01 9.25L237.01 9.25Q237.44 9.25 237.91 9.25L237.91 9.25L237.91 9.25Q238.38 9.25 238.80 9.26L238.80 9.26L238.80 9.26Q239.22 9.27 239.55 9.29L239.55 9.29L239.55 9.29Q239.89 9.31 240.04 9.32L240.04 9.32L240.04 9.32Q240.10 9.38 240.13 9.55L240.13 9.55L240.13 9.55Q240.16 9.72 240.16 9.90L240.16 9.90L240.16 9.90Q240.16 10.08 240.14 10.23L240.14 10.23L240.14 10.23Q240.13 10.37 240.11 10.39Z"></path></g></svg>